<?xml version="1.0" encoding="UTF-8" standalone="no"?>
<svg
   viewBox="0 0 995 1769"
   width="995"
   height="1769"
   version="1.1"
   id="svg8"
   xmlns="http://www.w3.org/2000/svg"
   xmlns:svg="http://www.w3.org/2000/svg">
  <defs
     id="defs8" />
  <path
     d="M 463 45 L 402 43 L 343 51 L 283 70 L 221 103 L 136 181 L 98 239 L 73 300 L 59 364 L 57 420 L 62 473 L 81 541 L 109 598 L 148 651 L 202 701 L 255 734 L 212 701 L 167 653 L 131 598 L 107 542 L 89 445 L 93 367 L 107 310 L 131 254 L 161 207 L 243 126 L 332 79 L 436 59 Z M 750 601 L 696 670 L 657 729 L 613 810 L 584 879 L 625 880 L 634 878 L 649 816 L 677 737 L 713 661 Z M 577 1318 L 596 1370 L 624 1429 L 663 1495 L 704 1553 L 778 1639 L 829 1689 L 893 1742 L 824 1651 L 755 1542 L 699 1431 L 658 1319 Z M 406 1318 L 355 1318 L 338 1360 L 305 1423 L 266 1485 L 216 1551 L 266 1509 L 297 1478 L 333 1436 L 369 1386 L 397 1338 Z "
     fill="#8b8485"
     fill-rule="evenodd"
     id="path1" />
  <path
     d="M 296 134 L 241 170 L 203 206 L 164 260 L 139 314 L 123 381 L 122 452 L 131 505 L 153 564 L 186 618 L 233 668 L 284 704 L 354 734 L 409 745 L 468 746 L 525 737 L 592 712 L 654 671 L 696 629 L 740 559 L 697 581 L 641 598 L 596 603 L 529 598 L 476 582 L 426 556 L 358 495 L 325 445 L 306 399 L 295 352 L 293 293 L 300 243 L 320 186 L 377 106 Z M 345 911 L 218 912 L 200 978 L 244 979 L 245 984 L 179 1227 L 260 1227 Z M 321 1159 L 319 1160 L 300 1160 L 299 1161 L 299 1164 L 297 1167 L 297 1171 L 296 1172 L 295 1178 L 294 1179 L 294 1183 L 292 1186 L 291 1194 L 289 1197 L 289 1201 L 288 1202 L 288 1205 L 286 1209 L 286 1213 L 285 1214 L 285 1216 L 283 1220 L 283 1224 L 282 1225 L 282 1227 L 304 1227 L 305 1225 L 306 1217 L 308 1214 L 309 1206 L 311 1202 L 311 1198 L 312 1197 L 312 1195 L 314 1191 L 314 1187 L 316 1183 L 317 1175 L 319 1172 L 320 1164 L 322 1161 Z "
     fill="#e0001d"
     fill-rule="evenodd"
     id="path2" />
  <circle
     cx="583.5"
     cy="312.5"
     r="243.5"
     fill="#ffffff"
     id="circle2" />
  <path
     d="M 555 70 L 497 84 L 458 103 L 419 132 L 389 165 L 361 212 L 347 252 L 340 305 L 342 347 L 353 392 L 373 435 L 407 481 L 433 504 L 472 529 L 515 546 L 554 554 L 613 554 L 652 546 L 704 524 L 740 499 L 773 465 L 801 422 L 818 378 L 826 337 L 826 288 L 818 246 L 801 202 L 773 159 L 737 123 L 700 98 L 655 79 L 611 70 Z M 428 168 L 508 112 L 579 145 L 579 206 L 586 207 L 586 147 L 651 115 L 744 172 L 748 249 L 679 271 L 668 283 L 753 258 L 795 321 L 821 293 L 812 380 L 770 460 L 765 461 L 766 428 L 795 323 L 762 424 L 685 444 L 644 386 L 630 380 L 679 449 L 641 518 L 521 512 L 481 439 L 523 386 L 524 372 L 478 435 L 403 416 L 375 303 L 422 243 L 489 271 L 504 269 L 422 241 Z M 349 279 L 358 287 L 372 303 L 374 307 L 375 316 L 380 332 L 380 337 L 383 345 L 383 350 L 385 354 L 389 375 L 391 379 L 391 383 L 394 391 L 394 396 L 397 404 L 397 409 L 401 422 L 403 448 L 405 457 L 405 465 L 403 467 L 388 448 L 372 422 L 372 420 L 370 418 L 361 398 L 361 395 L 358 390 L 358 387 L 355 380 L 347 344 L 346 317 L 345 316 L 347 281 Z M 629 80 L 633 79 L 637 81 L 645 82 L 670 90 L 672 92 L 677 93 L 679 95 L 688 98 L 720 117 L 739 132 L 764 157 L 771 167 L 776 172 L 779 178 L 786 187 L 787 191 L 785 192 L 780 189 L 778 189 L 776 187 L 774 187 L 767 183 L 765 183 L 763 181 L 746 174 L 744 172 L 744 170 L 729 161 L 723 156 L 704 145 L 701 142 L 656 114 L 630 83 Z M 501 533 L 517 518 L 518 518 L 519 516 L 521 515 L 532 515 L 533 516 L 563 516 L 564 517 L 580 517 L 581 518 L 641 519 L 656 534 L 657 537 L 653 540 L 650 540 L 649 541 L 646 541 L 642 543 L 638 543 L 637 544 L 634 544 L 629 546 L 623 546 L 622 547 L 610 548 L 609 549 L 578 550 L 577 549 L 558 549 L 557 548 L 550 548 L 549 547 L 545 547 L 544 546 L 538 546 L 537 545 L 534 545 L 529 543 L 525 543 L 521 541 L 518 541 L 517 540 L 514 540 L 511 538 L 505 537 L 503 536 Z M 530 82 L 529 85 L 527 86 L 508 109 L 464 139 L 450 150 L 444 153 L 437 159 L 429 164 L 424 169 L 414 173 L 411 173 L 409 175 L 403 176 L 392 181 L 389 181 L 388 182 L 386 181 L 386 179 L 410 149 L 429 131 L 447 117 L 464 106 L 466 106 L 473 101 L 475 101 L 477 99 L 481 98 L 492 92 L 525 81 L 529 81 Z "
     fill="#000000"
     fill-rule="evenodd"
     id="path3" />
  <path
     d="M 582 226 L 562 268 L 559 271 L 511 278 L 547 314 L 538 362 L 581 339 L 584 339 L 627 362 L 621 331 L 621 325 L 619 320 L 619 312 L 654 278 L 606 271 L 602 266 Z "
     fill="#e0001d"
     stroke="#d6d6d6"
     stroke-width="6"
     stroke-linejoin="round"
     id="path4" />
  <path
     d="m 428.21875,880 v -3.13672 l 9.15234,-1.16016 v -48.76953 h -2.1914 q -9.83985,0 -13.83594,0.85938 l -1.16016,10.69922 h -3.91015 v -16.11328 h 55.98828 v 16.11328 h -3.95313 l -1.16015,-10.69922 q -3.56641,-0.77344 -14.09375,-0.77344 h -2.10547 v 48.68359 l 9.15234,1.16016 V 880 Z m 67.80469,-24.57813 v 20.28125 l 9.58203,1.16016 V 880 h -29.94922 v -3.13672 l 6.83203,-1.16016 v -49.07031 l -7.39062,-1.11719 v -3.13671 h 48.03906 v 15.51171 h -4.03906 l -1.375,-10.18359 q -2.10547,-0.30078 -6.96094,-0.42969 -4.85547,-0.17187 -7.64844,-0.17187 h -7.08984 v 23.58984 h 14.05078 l 1.33203,-7.30469 h 3.82422 v 19.42188 h -3.82422 l -1.33203,-7.39063 z m 53.7539,0 v 20.28125 l 9.58203,1.16016 V 880 h -29.94921 v -3.13672 l 6.83203,-1.16016 v -49.07031 l -7.39063,-1.11719 v -3.13671 h 48.03906 v 15.51171 h -4.03906 l -1.375,-10.18359 q -2.10547,-0.30078 -6.96094,-0.42969 -4.85546,-0.17187 -7.64843,-0.17187 h -7.08985 v 23.58984 h 14.05078 l 1.33204,-7.30469 h 3.82421 v 19.42188 h -3.82421 l -1.33204,-7.39063 z"
     id="text4"
     style="font-weight:700;font-size:88px;font-family:Tinos, 'Times New Roman', serif;text-anchor:middle;fill:#e0001d"
     aria-label="TFF" />
  <path
     d="m 378.17,1230 v -164.22 h 37.26 v 135.47 h 60.95 V 1230 Z"
     id="text5"
     style="font-weight:700;font-size:230px;font-family:'Noto Sans Display', 'Noto Sans', Arial, sans-serif"
     aria-label="L" />
  <path
     d="m 539.27,1055.2 q 8.05,0 13.8,3.68 5.75,3.45 5.75,13.11 0,9.43 -5.75,13.11 -5.75,3.68 -13.8,3.68 -8.28,0 -14.03,-3.68 -5.75,-3.68 -5.75,-13.11 0,-9.66 5.75,-13.11 5.75,-3.68 14.03,-3.68 z m 18.17,49.22 V 1230 h -36.8 v -125.58 z"
     id="text6"
     style="font-weight:700;font-size:230px;font-family:'Noto Sans Display', 'Noto Sans', Arial, sans-serif"
     aria-label="i" />
  <path
     d="m 663.43,1137.77 h 63.71 v 85.1 q -11.96,4.37 -26.22,6.9 -14.26,2.53 -31.05,2.53 -34.04,0 -53.59,-21.62 -19.55,-21.62 -19.55,-63.02 0,-25.76 9.2,-44.62 9.43,-18.86 27.37,-29.21 18.17,-10.35 44.39,-10.35 13.34,0 25.76,2.76 12.42,2.76 22.08,7.36 l -11.96,27.83 q -7.82,-3.91 -16.79,-6.44 -8.97,-2.53 -19.09,-2.53 -21.16,0 -31.97,15.41 -10.58,15.18 -10.58,40.48 0,16.1 3.91,28.52 4.14,12.42 12.42,19.55 8.51,6.9 21.16,6.9 5.29,0 10.35,-0.69 5.06,-0.69 8.74,-1.61 v -34.27 h -28.29 z"
     id="text7"
     style="font-weight:700;font-size:230px;font-family:'Noto Sans Display', 'Noto Sans', Arial, sans-serif"
     aria-label="G" />
  <path
     d="m 142.752,1281.028 q 0,7.59 -4.026,12.144 -4.026,4.488 -12.276,4.488 -7.854,0 -11.946,-4.356 -4.092,-4.422 -4.092,-12.342 v -31.086 h 5.742 v 31.284 q 0,11.352 10.56,11.352 5.346,0 7.788,-2.97 2.508,-3.036 2.508,-8.448 v -31.218 h 5.742 z M 164.97196,1297 v -47.124 h 5.808 v 41.91 h 17.82 V 1297 Z m 73.23797,-15.972 q 0,7.59 -4.026,12.144 -4.026,4.488 -12.276,4.488 -7.854,0 -11.946,-4.356 -4.092,-4.422 -4.092,-12.342 v -31.086 h 5.742 v 31.284 q 0,11.352 10.56,11.352 5.346,0 7.788,-2.97 2.508,-3.036 2.508,-8.448 v -31.218 h 5.742 z m 46.44196,3.234 q 0,6.204 -4.158,9.834 -4.092,3.564 -11.022,3.564 -3.564,0 -6.6,-0.594 -3.036,-0.528 -5.214,-1.584 v -5.676 q 2.31,1.122 5.478,1.914 3.234,0.792 6.402,0.792 4.554,0 6.93,-2.112 2.376,-2.178 2.376,-5.61 0,-2.31 -0.924,-3.894 -0.858,-1.584 -2.97,-2.904 -2.112,-1.32 -5.742,-2.838 -5.412,-2.178 -8.25,-5.214 -2.772,-3.036 -2.772,-8.58 -0.066,-3.696 1.716,-6.402 1.782,-2.772 4.95,-4.224 3.168,-1.518 7.26,-1.518 3.432,0 6.402,0.726 2.97,0.726 5.28,1.782 l -1.782,5.082 q -2.31,-1.056 -4.818,-1.716 -2.508,-0.66 -5.148,-0.66 -3.894,0 -5.94,1.914 -2.046,1.914 -2.046,4.95 0,2.442 0.858,4.026 0.858,1.518 2.838,2.838 2.046,1.254 5.478,2.64 5.61,2.376 8.514,5.346 2.904,2.97 2.904,8.118 z m 45.45203,12.738 -4.884,-14.652 h -15.84 l -4.818,14.652 h -6.006 l 15.84,-47.256 h 5.808 l 15.906,47.256 z m -11.022,-34.584 q -0.198,-0.726 -0.594,-2.046 -0.33,-1.32 -0.726,-2.64 -0.33,-1.386 -0.528,-2.244 -0.33,1.848 -0.858,3.696 -0.462,1.848 -0.858,3.234 l -4.62,14.718 h 12.804 z M 352.9839,1297 v -47.124 h 5.808 v 41.91 h 17.82 V 1297 Z m 74.07403,0 h -5.808 v -47.124 h 23.562 v 5.148 h -17.754 v 16.764 h 16.698 v 5.148 h -16.698 z m 68.02403,-15.972 q 0,7.59 -4.026,12.144 -4.026,4.488 -12.276,4.488 -7.854,0 -11.946,-4.356 -4.092,-4.422 -4.092,-12.342 v -31.086 h 5.742 v 31.284 q 0,11.352 10.56,11.352 5.346,0 7.788,-2.97 2.508,-3.036 2.508,-8.448 v -31.218 h 5.742 z M 530.6339,1297 h -5.808 v -41.976 h -12.672 v -5.148 h 31.086 v 5.148 h -12.606 z m 42.48204,-47.124 q 7.92,0 11.946,2.706 4.092,2.706 4.092,8.844 0,4.29 -2.112,7.062 -2.112,2.772 -6.072,3.498 v 0.33 q 4.29,0.792 6.864,3.432 2.64,2.574 2.64,7.788 0,6.336 -3.96,9.9 -3.894,3.564 -10.824,3.564 h -14.916 v -47.124 z m 0.792,20.13 q 5.148,0 7.194,-1.98 2.046,-2.046 2.046,-6.006 0,-3.696 -2.376,-5.412 -2.376,-1.782 -7.458,-1.782 h -6.732 v 15.18 z m -7.326,4.818 v 17.226 h 8.184 q 5.214,0 7.392,-2.376 2.178,-2.376 2.178,-6.534 0,-3.828 -2.31,-6.072 -2.31,-2.244 -7.788,-2.244 z m 80.36601,-1.452 q 0,7.128 -2.112,12.606 -2.112,5.478 -6.402,8.58 -4.224,3.102 -10.692,3.102 -6.666,0 -10.956,-3.102 -4.224,-3.168 -6.27,-8.646 -2.046,-5.544 -2.046,-12.606 0,-11.286 4.752,-17.688 4.818,-6.468 14.52,-6.468 6.468,0 10.692,3.102 4.29,3.102 6.402,8.58 2.112,5.412 2.112,12.54 z m -32.406,0 q 0,9.108 3.234,14.124 3.234,5.016 9.9,5.016 6.732,0 9.9,-4.95 3.234,-5.016 3.234,-14.19 0,-9.174 -3.168,-14.124 -3.168,-4.95 -9.9,-4.95 -6.732,0 -9.966,5.016 -3.234,4.95 -3.234,14.058 z M 667.45186,1297 v -47.124 h 5.808 v 41.91 h 17.82 V 1297 Z m 68.26605,0 v -47.124 h 5.808 v 41.91 h 17.82 V 1297 Z m 54.56,0 h -15.972 v -3.366 l 5.082,-1.188 v -38.016 l -5.082,-1.188 v -3.366 h 15.972 v 3.366 l -5.082,1.188 v 38.016 l 5.082,1.188 z m 37.99404,-24.882 h 14.718 v 23.166 q -3.498,1.188 -7.128,1.782 -3.564,0.594 -7.854,0.594 -6.798,0 -11.352,-3.036 -4.488,-3.036 -6.798,-8.448 -2.31,-5.478 -2.31,-12.804 0,-7.194 2.508,-12.606 2.574,-5.478 7.458,-8.514 4.95,-3.036 12.012,-3.036 3.63,0 6.864,0.792 3.234,0.726 6.006,2.046 l -2.178,5.016 q -2.376,-1.188 -5.148,-1.914 -2.772,-0.792 -5.676,-0.792 -7.524,0 -11.682,5.016 -4.092,5.016 -4.092,14.058 0,5.544 1.518,9.9 1.584,4.29 4.95,6.798 3.432,2.442 8.976,2.442 2.64,0 4.554,-0.33 1.98,-0.33 3.63,-0.792 v -14.19 h -8.976 z M 876.89193,1297 h -15.972 v -3.366 l 5.082,-1.188 v -38.016 l -5.082,-1.188 v -3.366 h 15.972 v 3.366 l -5.082,1.188 v 38.016 l 5.082,1.188 z"
     id="text8"
     style="font-weight:300;font-size:66px;font-family:'Noto Sans SemiCondensed', 'Noto Sans', Arial, sans-serif;letter-spacing:11;fill:#8b8485"
     aria-label="ULUSAL FUTBOL LIGI" />
</svg>
