<svg xmlns="http://www.w3.org/2000/svg" viewBox="0 0 574.000 154.000" width="574.000" height="154.000"><path fill="black" fill-rule="evenodd" d="M 66.125 133.877 L 56.500 133.912 L 54.375 133.045 L 52.375 132.849 L 51.500 132.117 L 50.125 131.834 L 49.250 131.177 L 48.125 130.802 L 45.250 128.830 L 42.125 125.794 L 40.500 123.350 L 40.125 123.521 L 39.919 124.125 L 39.878 130.375 L 39.670 132.250 L 39.250 132.781 L 20.875 132.973 L 20.014 132.500 L 19.992 20.875 L 20.500 20.026 L 40.125 19.900 L 40.875 20.292 L 40.830 58.625 L 41.125 59.565 L 41.736 59.500 L 42.166 58.250 L 44.311 56.125 L 48.500 53.151 L 50.000 52.770 L 51.125 52.019 L 52.750 51.792 L 53.874 51.125 L 61.500 50.382 L 68.125 51.085 L 69.625 51.812 L 71.500 52.087 L 72.500 52.807 L 74.164 53.125 L 77.625 55.056 L 78.375 55.827 L 80.625 57.131 L 83.783 60.250 L 86.776 64.125 L 88.073 66.625 L 88.797 67.375 L 89.072 68.500 L 89.757 69.375 L 90.116 70.750 L 90.777 71.750 L 91.125 73.491 L 91.851 74.625 L 92.050 76.500 L 92.771 77.875 L 93.033 81.000 L 93.840 84.000 L 94.011 92.000 L 93.817 100.500 L 93.080 102.750 L 92.861 105.750 L 92.070 107.625 L 91.849 109.625 L 91.061 110.875 L 90.812 112.500 L 90.103 113.375 L 89.821 114.750 L 89.170 115.625 L 88.790 116.750 L 85.770 121.500 L 79.560 127.750 L 77.375 129.053 L 76.625 129.841 L 73.625 131.165 L 72.750 131.841 L 71.500 132.137 L 70.500 132.849 L 68.625 133.036 L 66.125 133.877 Z M 57.305 115.875 L 62.125 114.818 L 63.125 114.069 L 64.375 113.710 L 67.715 110.750 L 69.739 108.000 L 70.150 106.750 L 70.833 105.750 L 71.056 104.125 L 71.876 102.500 L 72.879 95.375 L 72.878 87.625 L 71.838 81.500 L 71.096 80.000 L 70.750 78.507 L 68.794 75.250 L 66.718 73.125 L 65.500 72.012 L 62.125 70.062 L 60.375 69.838 L 58.000 69.077 L 53.500 69.030 L 50.750 69.891 L 49.359 70.000 L 48.391 70.750 L 47.250 71.081 L 44.125 74.144 L 43.125 75.576 L 42.791 76.875 L 42.036 78.000 L 41.867 79.750 L 41.191 81.250 L 40.950 82.625 L 40.972 101.750 L 41.846 104.750 L 42.053 106.750 L 42.735 107.625 L 43.071 108.875 L 44.052 110.625 L 46.250 112.815 L 49.625 114.858 L 53.500 115.838 L 57.305 115.875 Z"/><path fill="black" fill-rule="evenodd" d="M 139.625 134.128 L 130.750 133.862 L 128.250 133.063 L 126.125 132.822 L 124.750 132.018 L 123.125 131.838 L 122.166 131.125 L 118.750 129.749 L 114.207 126.750 L 108.150 120.500 L 104.067 113.625 L 102.729 109.500 L 102.087 108.375 L 101.750 106.150 L 101.074 104.625 L 100.842 101.750 L 99.989 97.875 L 100.004 87.750 L 100.749 84.000 L 101.054 80.375 L 101.750 78.875 L 102.077 76.375 L 102.750 75.192 L 103.148 73.500 L 103.814 72.500 L 104.089 71.125 L 106.048 67.375 L 106.764 66.625 L 108.105 64.250 L 112.485 59.250 L 116.250 56.084 L 118.750 54.792 L 119.500 54.087 L 120.625 53.838 L 121.500 53.043 L 123.125 52.796 L 124.250 52.042 L 126.000 51.789 L 127.750 51.101 L 134.000 50.246 L 139.500 50.389 L 142.125 50.899 L 145.125 51.092 L 147.125 51.848 L 149.125 52.092 L 150.125 52.832 L 151.375 53.058 L 152.250 53.822 L 153.500 54.066 L 154.250 54.815 L 155.375 55.181 L 158.250 57.290 L 161.595 60.250 L 164.750 64.126 L 166.074 66.500 L 166.826 67.250 L 167.164 68.375 L 167.850 69.250 L 168.122 70.375 L 168.859 71.250 L 169.043 72.625 L 169.802 73.625 L 170.031 75.500 L 170.840 77.000 L 171.051 79.500 L 171.847 82.000 L 172.314 88.000 L 172.501 97.000 L 172.250 97.611 L 171.625 97.912 L 121.750 97.891 L 120.871 98.250 L 121.137 102.500 L 121.803 104.125 L 122.075 105.750 L 123.125 108.001 L 124.124 109.625 L 127.125 112.730 L 128.500 113.774 L 129.625 114.037 L 130.500 114.862 L 132.125 115.046 L 134.500 115.845 L 141.125 115.940 L 143.375 115.833 L 145.375 115.063 L 147.625 114.838 L 149.125 114.015 L 150.625 113.815 L 151.500 113.131 L 152.750 112.838 L 153.625 112.165 L 154.625 111.842 L 155.375 111.110 L 156.375 110.778 L 157.723 109.750 L 159.574 108.000 L 160.375 107.752 L 162.669 110.375 L 167.045 116.500 L 169.627 119.500 L 169.699 120.250 L 168.784 121.625 L 165.625 124.796 L 162.250 127.089 L 161.625 127.820 L 159.125 129.077 L 158.375 129.754 L 157.125 130.078 L 156.375 130.768 L 154.875 131.062 L 153.625 131.884 L 152.125 132.052 L 150.875 132.772 L 148.375 133.028 L 146.375 133.805 L 139.625 134.128 Z M 151.505 84.250 L 151.962 83.375 L 151.810 80.000 L 151.122 78.500 L 150.763 76.500 L 150.094 75.750 L 149.725 74.625 L 148.808 73.250 L 146.625 71.070 L 145.282 70.125 L 144.125 69.769 L 143.375 69.105 L 139.625 68.125 L 138.000 67.968 L 133.875 68.038 L 131.875 68.823 L 130.250 69.054 L 128.375 70.048 L 125.898 72.125 L 123.175 75.500 L 122.128 77.625 L 121.719 79.500 L 121.011 81.125 L 120.787 83.250 L 121.047 84.000 L 121.625 84.344 L 123.000 84.122 L 151.505 84.250 Z"/><path fill="black" fill-rule="evenodd" d="M 215.375 134.131 L 203.250 133.865 L 200.750 133.056 L 198.125 132.813 L 196.750 132.061 L 194.875 131.859 L 193.375 131.051 L 191.500 130.808 L 190.585 130.125 L 189.000 129.802 L 187.875 129.047 L 186.500 128.844 L 185.625 128.063 L 184.375 127.808 L 183.625 127.068 L 182.375 126.810 L 181.625 126.084 L 180.430 125.500 L 179.877 124.500 L 179.975 122.125 L 180.767 118.500 L 181.012 114.500 L 181.848 110.375 L 182.322 104.500 L 182.750 104.031 L 183.500 104.007 L 184.375 104.912 L 187.567 106.750 L 188.750 107.082 L 189.500 107.738 L 190.875 108.116 L 191.650 108.750 L 193.178 109.125 L 194.250 109.889 L 195.500 110.035 L 196.500 110.797 L 198.375 111.082 L 199.750 111.858 L 201.750 112.041 L 203.125 112.844 L 205.750 113.016 L 209.506 113.875 L 218.336 113.750 L 220.500 113.033 L 222.602 112.875 L 223.750 112.088 L 225.375 111.757 L 228.125 109.676 L 229.701 108.000 L 230.838 106.250 L 231.727 102.375 L 231.462 99.000 L 230.787 96.625 L 229.729 95.000 L 228.125 93.257 L 225.573 91.125 L 224.454 90.750 L 223.625 90.015 L 222.500 89.827 L 221.625 89.077 L 220.125 88.839 L 218.875 88.054 L 217.000 87.855 L 215.250 87.072 L 213.375 86.848 L 211.511 86.125 L 209.000 85.790 L 202.105 83.750 L 201.000 83.094 L 199.500 82.689 L 198.625 82.062 L 197.375 81.776 L 196.500 81.027 L 195.375 80.784 L 194.730 80.125 L 193.625 79.692 L 189.375 76.719 L 185.080 72.500 L 183.750 70.281 L 183.069 69.625 L 181.109 66.000 L 179.096 59.750 L 178.617 53.750 L 178.999 46.500 L 180.128 41.750 L 180.817 40.750 L 181.068 39.500 L 181.791 38.625 L 182.085 37.500 L 183.737 35.375 L 184.146 34.375 L 188.250 30.076 L 192.250 27.104 L 196.000 25.082 L 197.390 24.750 L 198.375 24.045 L 199.875 23.845 L 201.250 23.083 L 203.625 22.804 L 205.500 22.076 L 214.000 21.341 L 226.125 21.985 L 228.750 22.814 L 231.375 23.035 L 232.875 23.786 L 235.000 24.081 L 236.125 24.830 L 237.750 25.031 L 238.750 25.748 L 240.229 26.125 L 241.158 26.750 L 242.500 27.095 L 243.375 27.803 L 244.625 28.128 L 245.102 29.500 L 244.870 49.250 L 244.250 49.641 L 241.625 48.156 L 240.125 47.780 L 239.250 47.111 L 237.750 46.760 L 236.500 46.064 L 235.000 45.786 L 233.750 45.074 L 232.250 44.793 L 231.000 44.063 L 229.000 43.834 L 227.375 43.060 L 224.875 42.837 L 222.841 42.125 L 215.250 41.699 L 208.375 41.989 L 207.125 42.762 L 205.500 43.101 L 203.666 44.250 L 201.260 46.375 L 200.122 48.125 L 199.128 51.250 L 199.039 53.375 L 199.250 55.855 L 200.125 58.328 L 201.125 59.687 L 204.250 62.739 L 207.750 64.762 L 213.250 66.823 L 215.250 67.170 L 217.097 67.875 L 218.875 68.080 L 220.750 68.804 L 223.125 69.121 L 224.750 69.839 L 226.750 70.013 L 228.250 70.834 L 230.250 71.092 L 231.250 71.864 L 232.625 72.047 L 233.500 72.759 L 234.626 73.000 L 235.500 73.720 L 236.625 74.027 L 237.402 74.750 L 238.500 75.110 L 242.517 78.125 L 244.750 80.331 L 247.790 84.250 L 249.756 87.875 L 250.125 89.273 L 250.775 90.375 L 251.801 94.250 L 252.405 100.625 L 251.776 109.625 L 250.750 113.240 L 250.006 114.375 L 249.818 115.500 L 249.094 116.375 L 248.743 117.500 L 245.800 121.625 L 241.625 125.758 L 239.375 127.112 L 238.625 127.849 L 236.125 129.112 L 235.500 129.753 L 234.250 130.029 L 233.375 130.783 L 231.875 131.062 L 230.625 131.865 L 228.750 132.025 L 227.500 132.841 L 225.250 132.983 L 222.625 133.809 L 215.375 134.131 Z"/><path fill="black" fill-rule="evenodd" d="M 297.250 134.127 L 289.375 133.830 L 287.250 133.048 L 285.125 132.831 L 283.750 132.028 L 282.250 131.846 L 281.375 131.124 L 280.125 130.820 L 279.375 130.161 L 278.125 129.794 L 277.375 129.097 L 276.375 128.854 L 271.125 124.685 L 267.140 120.375 L 266.750 119.496 L 265.068 117.500 L 263.130 114.250 L 262.783 113.125 L 262.074 112.375 L 261.842 111.125 L 261.042 110.000 L 260.781 108.375 L 260.057 107.375 L 259.820 105.250 L 259.051 103.750 L 258.844 101.000 L 258.078 98.375 L 257.954 95.750 L 257.996 88.500 L 258.859 84.250 L 259.022 81.375 L 259.823 80.000 L 260.019 78.000 L 260.837 76.750 L 261.000 75.232 L 261.750 74.119 L 262.117 72.625 L 262.810 71.750 L 263.125 70.608 L 264.702 68.250 L 265.062 67.250 L 265.750 66.597 L 267.125 64.344 L 270.125 60.960 L 274.250 57.112 L 276.625 55.784 L 277.375 55.034 L 278.500 54.720 L 279.250 54.024 L 280.375 53.765 L 281.375 53.009 L 282.750 52.811 L 283.875 52.086 L 285.750 51.871 L 287.500 51.101 L 295.750 50.191 L 298.375 50.213 L 304.875 51.024 L 307.123 51.875 L 308.875 52.045 L 310.125 52.828 L 311.500 53.023 L 312.375 53.757 L 313.625 54.035 L 314.375 54.762 L 315.500 55.040 L 316.250 55.799 L 318.500 57.078 L 322.750 61.201 L 325.750 65.498 L 327.750 69.631 L 328.125 71.498 L 328.881 72.875 L 328.935 73.875 L 328.659 74.500 L 328.125 74.827 L 326.250 75.035 L 325.000 75.828 L 323.250 76.002 L 321.875 76.828 L 320.250 77.048 L 319.000 77.784 L 317.125 78.018 L 315.750 78.791 L 314.125 79.022 L 312.750 79.722 L 311.375 79.975 L 310.232 79.375 L 309.790 77.375 L 307.750 74.190 L 305.625 72.104 L 302.250 70.094 L 300.250 69.839 L 297.875 69.100 L 294.500 69.071 L 293.125 69.285 L 291.625 69.905 L 290.250 70.028 L 288.170 71.125 L 285.375 73.423 L 283.077 76.250 L 282.741 77.250 L 282.000 78.239 L 281.750 79.590 L 281.073 80.500 L 280.813 83.000 L 280.049 85.000 L 280.047 99.125 L 280.867 101.125 L 281.071 103.250 L 281.750 104.306 L 282.013 105.750 L 283.081 107.750 L 285.087 110.625 L 287.500 112.827 L 290.875 114.819 L 292.655 115.000 L 295.625 115.834 L 299.579 115.625 L 302.875 114.839 L 304.000 114.082 L 305.375 113.665 L 306.750 112.684 L 309.750 109.664 L 311.750 106.378 L 312.035 105.250 L 312.625 104.915 L 317.250 106.104 L 318.750 106.832 L 320.625 107.075 L 322.125 107.865 L 324.125 108.061 L 325.493 108.875 L 327.500 109.016 L 328.500 109.689 L 329.875 110.060 L 330.205 110.500 L 329.872 112.750 L 329.093 113.875 L 328.821 115.500 L 328.135 116.375 L 327.837 117.625 L 327.138 118.500 L 326.750 119.622 L 324.673 122.500 L 322.625 124.729 L 317.601 128.750 L 316.429 129.125 L 315.625 129.858 L 314.500 130.118 L 313.641 130.875 L 312.375 131.029 L 311.375 131.842 L 309.500 132.087 L 308.375 132.831 L 306.250 133.033 L 304.125 133.861 L 297.250 134.127 Z M 333.875 100.306 L 333.138 93.625 L 333.230 89.750 L 333.875 84.816 Z"/><path fill="black" fill-rule="evenodd" d="M 374.625 134.003 L 364.500 133.876 L 361.750 133.003 L 359.750 132.824 L 358.250 132.037 L 356.625 131.838 L 355.625 131.039 L 354.250 130.832 L 353.500 130.091 L 352.375 129.826 L 351.625 129.115 L 350.500 128.721 L 345.375 124.581 L 340.210 118.375 L 338.103 114.875 L 337.679 113.500 L 337.035 112.750 L 336.794 111.250 L 336.039 110.375 L 335.819 108.625 L 335.070 107.500 L 334.822 105.250 L 334.014 103.500 L 333.898 100.500 L 333.189 95.125 L 333.203 90.125 L 333.881 84.750 L 333.982 81.750 L 334.805 79.625 L 335.030 77.250 L 335.822 76.000 L 336.019 74.250 L 336.732 73.250 L 338.144 69.500 L 342.139 63.375 L 347.250 58.111 L 350.250 56.026 L 352.871 54.750 L 353.625 54.123 L 354.875 53.808 L 356.000 53.052 L 357.500 52.778 L 358.500 52.121 L 360.625 51.874 L 362.250 51.124 L 370.000 50.260 L 373.500 50.341 L 380.000 51.068 L 381.750 51.830 L 383.750 52.080 L 385.000 52.826 L 386.625 53.012 L 392.500 56.054 L 397.744 60.250 L 399.750 62.325 L 402.793 66.250 L 404.095 68.625 L 404.868 69.375 L 405.125 70.465 L 405.875 71.303 L 406.125 72.455 L 406.823 73.250 L 407.043 74.750 L 407.836 75.875 L 408.042 77.625 L 408.825 78.875 L 409.040 81.125 L 409.787 83.000 L 410.355 91.500 L 409.874 101.250 L 409.000 104.112 L 408.804 106.250 L 408.100 107.375 L 407.790 109.375 L 407.066 110.375 L 406.863 111.750 L 406.139 112.750 L 405.750 113.963 L 404.151 116.500 L 403.833 117.500 L 400.783 121.625 L 395.500 126.652 L 394.470 127.125 L 392.500 128.800 L 391.375 129.083 L 390.625 129.839 L 389.468 130.125 L 388.625 130.850 L 387.375 131.029 L 386.500 131.819 L 384.625 132.063 L 383.250 132.851 L 381.000 133.038 L 378.500 133.849 L 374.625 134.003 Z M 373.333 115.625 L 377.625 114.829 L 378.793 114.125 L 380.125 113.742 L 381.687 112.750 L 385.840 108.500 L 386.123 107.375 L 386.887 106.500 L 387.094 105.125 L 387.810 104.000 L 388.049 101.375 L 388.765 99.125 L 388.904 86.625 L 388.607 84.750 L 388.018 83.250 L 387.885 81.125 L 387.021 79.750 L 386.829 78.375 L 386.085 77.625 L 385.755 76.500 L 384.750 75.158 L 381.750 72.160 L 380.262 71.125 L 379.125 70.823 L 377.875 70.027 L 373.625 69.095 L 369.875 69.074 L 367.375 69.820 L 365.375 70.014 L 364.458 70.750 L 363.125 71.108 L 360.202 73.250 L 357.096 77.250 L 356.754 78.500 L 356.006 79.375 L 355.801 81.000 L 355.072 82.375 L 354.863 84.875 L 354.248 87.250 L 354.083 95.875 L 354.839 99.625 L 355.029 102.125 L 355.841 104.000 L 356.050 105.500 L 356.758 106.375 L 357.045 107.625 L 360.188 111.625 L 363.250 113.818 L 364.625 114.067 L 365.625 114.799 L 370.250 115.663 L 373.333 115.625 Z"/><path fill="black" fill-rule="evenodd" d="M 450.625 133.881 L 440.375 133.870 L 438.125 133.051 L 436.125 132.829 L 435.125 132.119 L 433.625 131.773 L 432.750 131.070 L 431.625 130.746 L 428.401 128.625 L 425.143 125.500 L 423.120 122.500 L 422.818 121.375 L 422.021 120.500 L 421.806 119.250 L 421.065 118.375 L 420.794 116.500 L 419.997 114.875 L 419.115 107.125 L 419.046 52.375 L 419.375 52.025 L 420.000 51.924 L 439.000 51.893 L 439.855 52.250 L 439.949 98.750 L 440.188 104.000 L 440.850 106.000 L 441.029 108.000 L 441.814 109.125 L 442.058 110.375 L 445.168 113.750 L 446.625 114.731 L 447.875 115.062 L 449.125 115.827 L 453.000 116.084 L 457.500 115.832 L 461.500 113.794 L 464.774 110.500 L 465.125 109.412 L 465.840 108.625 L 466.117 107.250 L 466.837 105.875 L 467.604 100.750 L 467.719 97.625 L 467.681 52.375 L 468.750 51.910 L 488.000 52.091 L 488.427 52.750 L 488.393 132.375 L 488.000 132.791 L 487.250 132.970 L 469.500 132.871 L 468.975 132.125 L 468.436 124.375 L 468.125 123.884 L 467.625 123.776 L 467.125 124.032 L 466.625 125.265 L 465.523 126.500 L 461.500 129.860 L 460.500 130.150 L 459.856 130.750 L 458.625 131.163 L 457.750 131.828 L 456.295 132.125 L 455.375 132.794 L 453.375 133.049 L 450.625 133.881 Z"/><path fill="black" fill-rule="evenodd" d="M 535.250 134.125 L 528.500 133.800 L 526.750 133.026 L 525.000 132.811 L 523.875 132.066 L 522.500 131.753 L 521.833 131.125 L 519.375 129.794 L 518.218 128.750 L 516.078 126.625 L 514.125 123.869 L 513.125 122.115 L 512.785 120.500 L 512.091 119.375 L 511.841 117.000 L 511.218 115.125 L 511.006 113.375 L 510.967 70.375 L 510.125 69.905 L 497.625 70.000 L 496.936 69.375 L 496.928 53.875 L 497.125 53.201 L 497.750 52.934 L 503.250 52.864 L 510.250 52.318 L 510.921 51.750 L 510.927 32.625 L 511.125 31.707 L 511.625 31.310 L 531.375 31.444 L 531.790 31.875 L 531.940 32.625 L 531.763 51.250 L 532.000 51.747 L 532.750 51.970 L 551.125 51.894 L 551.750 52.063 L 552.055 52.500 L 552.101 69.000 L 551.850 69.750 L 551.125 69.991 L 532.750 69.897 L 531.866 70.375 L 531.937 110.625 L 532.054 111.500 L 532.700 112.375 L 533.179 113.750 L 534.625 114.781 L 537.869 115.625 L 540.625 115.606 L 545.500 114.850 L 547.125 114.007 L 548.526 113.875 L 549.500 112.970 L 550.500 113.148 L 550.818 113.750 L 551.077 117.375 L 551.897 119.250 L 552.042 121.500 L 552.822 123.250 L 553.056 125.750 L 553.849 127.375 L 553.918 129.250 L 553.500 129.818 L 552.250 130.007 L 549.000 131.791 L 547.250 132.077 L 545.875 132.837 L 543.875 133.003 L 540.875 133.894 L 535.250 134.125 Z"/></svg>