<svg xmlns="http://www.w3.org/2000/svg" viewBox="0 0 845.000 283.000" width="845.000" height="283.000"><path fill="black" fill-rule="evenodd" d="M 138.750 262.893 L 133.500 262.855 L 132.125 262.093 L 130.375 261.863 L 129.375 261.124 L 128.125 260.816 L 127.375 260.158 L 126.250 259.813 L 125.449 259.125 L 122.500 257.733 L 118.375 255.140 L 117.375 254.774 L 116.625 254.045 L 112.375 251.830 L 111.625 251.062 L 110.500 250.706 L 108.375 249.162 L 107.363 248.875 L 106.514 248.000 L 105.427 247.750 L 104.750 247.088 L 102.250 245.834 L 101.500 245.057 L 100.375 244.819 L 99.625 244.063 L 95.125 241.780 L 94.375 241.120 L 93.219 240.750 L 88.954 238.125 L 87.750 237.699 L 83.750 235.090 L 81.125 233.768 L 80.455 233.125 L 79.375 232.798 L 78.625 232.044 L 77.625 231.721 L 75.375 230.140 L 74.250 229.836 L 73.500 229.050 L 72.375 228.751 L 71.750 228.109 L 69.125 226.797 L 68.440 226.125 L 67.375 225.827 L 66.625 225.076 L 65.500 224.725 L 64.828 224.125 L 55.375 218.756 L 47.375 212.716 L 44.187 209.750 L 41.123 206.500 L 37.156 201.500 L 35.125 198.465 L 32.163 193.125 L 29.125 185.573 L 27.047 177.750 L 26.799 174.875 L 26.137 171.750 L 25.820 166.750 L 25.099 161.250 L 24.804 153.375 L 24.030 146.375 L 23.850 138.625 L 23.004 130.250 L 22.802 122.000 L 22.058 115.625 L 21.864 107.625 L 21.025 100.875 L 20.848 92.000 L 20.120 86.125 L 19.949 82.375 L 19.968 71.750 L 20.149 70.750 L 20.797 69.625 L 21.042 68.125 L 21.734 67.250 L 22.093 66.250 L 25.209 62.250 L 29.500 59.176 L 36.000 56.793 L 37.125 56.113 L 38.750 55.800 L 39.760 55.125 L 41.268 54.750 L 45.000 53.054 L 46.432 52.750 L 47.500 52.076 L 49.000 51.748 L 50.125 51.029 L 51.375 50.803 L 52.375 50.035 L 53.750 49.829 L 54.875 49.075 L 56.421 48.750 L 57.375 48.045 L 58.750 47.805 L 59.875 47.071 L 61.415 46.750 L 62.375 46.059 L 63.625 45.858 L 64.754 45.125 L 66.250 44.774 L 67.250 44.047 L 68.625 43.821 L 69.500 43.075 L 71.000 42.824 L 72.250 42.079 L 73.625 41.802 L 74.625 41.108 L 76.250 40.766 L 77.375 40.045 L 78.625 39.840 L 79.625 39.157 L 81.125 38.799 L 84.843 37.125 L 88.875 35.770 L 92.500 34.069 L 94.000 33.756 L 95.000 33.089 L 96.500 32.763 L 97.500 32.118 L 99.000 31.780 L 100.125 31.031 L 101.500 30.804 L 102.515 30.125 L 104.000 29.798 L 105.125 29.025 L 106.500 28.830 L 107.500 28.085 L 108.875 27.819 L 110.000 27.039 L 111.375 26.835 L 112.375 26.024 L 113.750 25.828 L 114.750 25.114 L 116.200 24.750 L 117.250 24.018 L 118.625 23.798 L 119.467 23.125 L 120.750 22.830 L 121.750 22.135 L 123.215 21.750 L 124.250 21.090 L 128.000 20.068 L 134.375 19.262 L 136.875 19.334 L 142.625 20.122 L 146.125 21.148 L 147.250 21.806 L 148.875 22.104 L 150.000 22.831 L 151.500 23.124 L 152.375 23.814 L 153.625 24.057 L 154.500 24.771 L 156.000 25.123 L 157.000 25.827 L 158.375 26.053 L 159.311 26.875 L 160.750 27.054 L 161.750 27.783 L 163.375 28.135 L 164.250 28.815 L 165.654 29.000 L 166.750 29.771 L 168.250 30.106 L 169.375 30.819 L 170.625 31.034 L 171.625 31.768 L 175.750 33.025 L 176.837 33.750 L 180.875 35.062 L 181.949 35.750 L 188.631 38.125 L 192.250 39.790 L 193.750 40.108 L 194.750 40.768 L 196.375 41.160 L 197.250 41.808 L 198.750 42.105 L 199.750 42.796 L 201.250 43.107 L 202.250 43.833 L 203.625 44.046 L 204.500 44.765 L 206.125 45.078 L 207.250 45.836 L 208.625 46.055 L 209.500 46.747 L 211.125 47.086 L 212.125 47.819 L 213.625 48.029 L 214.625 48.733 L 216.125 49.100 L 217.183 49.750 L 218.750 50.045 L 219.697 50.750 L 221.250 51.078 L 222.334 51.750 L 223.750 52.059 L 224.750 52.719 L 229.000 54.142 L 232.417 55.750 L 239.250 58.127 L 240.250 58.814 L 241.625 59.074 L 242.500 59.730 L 243.625 60.074 L 244.308 60.750 L 245.375 61.148 L 246.625 62.096 L 249.753 65.375 L 251.826 69.000 L 252.756 72.125 L 252.948 74.000 L 252.901 81.500 L 252.029 92.375 L 251.847 99.750 L 251.088 107.000 L 250.797 117.500 L 250.144 123.500 L 249.848 131.125 L 249.137 138.625 L 247.860 162.375 L 247.240 166.750 L 246.818 173.000 L 245.756 179.125 L 245.024 181.000 L 244.760 183.000 L 244.070 184.250 L 243.838 185.750 L 243.056 187.000 L 242.825 188.500 L 242.110 189.375 L 241.808 190.750 L 241.174 191.500 L 239.810 194.625 L 239.074 195.375 L 238.750 196.444 L 237.177 198.500 L 236.768 199.500 L 231.750 205.694 L 224.625 212.752 L 219.474 216.750 L 216.375 218.803 L 210.446 222.125 L 209.750 222.790 L 208.625 223.146 L 206.375 224.675 L 205.250 225.095 L 204.625 225.794 L 203.393 226.125 L 202.750 226.787 L 200.250 228.057 L 199.500 228.824 L 198.375 229.035 L 197.625 229.821 L 195.125 231.081 L 194.419 231.750 L 193.375 232.036 L 192.500 232.850 L 191.500 233.196 L 189.250 234.696 L 188.135 235.125 L 187.492 235.750 L 182.945 238.125 L 175.375 242.748 L 174.375 243.065 L 173.625 243.777 L 169.375 246.019 L 168.625 246.796 L 167.500 247.201 L 165.375 248.731 L 164.375 249.040 L 163.625 249.800 L 162.500 250.200 L 160.375 251.735 L 159.250 252.095 L 158.625 252.764 L 154.375 255.081 L 153.625 255.798 L 150.375 257.739 L 149.274 258.125 L 148.500 258.823 L 147.500 259.153 L 146.626 259.875 L 145.500 260.157 L 144.629 260.875 L 143.274 261.125 L 142.500 261.766 L 140.875 262.038 L 138.750 262.893 Z M 90.402 212.375 L 97.125 211.831 L 99.250 211.019 L 101.625 210.819 L 103.000 210.011 L 104.658 209.875 L 105.716 209.125 L 107.250 208.781 L 108.250 208.079 L 109.625 207.755 L 110.375 207.074 L 111.500 206.812 L 112.250 206.086 L 113.250 205.683 L 117.625 202.753 L 121.500 199.427 L 126.766 193.625 L 128.091 191.375 L 129.737 189.375 L 130.115 188.125 L 130.790 187.500 L 131.076 186.250 L 131.861 185.375 L 132.054 184.125 L 132.768 183.250 L 133.073 181.500 L 133.875 180.953 L 138.500 180.909 L 139.598 181.250 L 140.125 183.075 L 140.775 184.000 L 141.088 185.375 L 141.803 186.250 L 142.098 187.375 L 146.099 193.625 L 150.500 198.566 L 155.250 202.732 L 158.125 204.782 L 160.625 206.050 L 161.375 206.768 L 162.625 207.077 L 163.375 207.831 L 164.625 208.039 L 165.500 208.806 L 167.125 209.109 L 168.250 209.861 L 170.125 210.061 L 171.375 210.831 L 173.750 211.013 L 175.875 211.834 L 182.500 212.326 L 191.625 211.892 L 194.250 211.030 L 196.625 210.838 L 198.000 210.058 L 199.875 209.857 L 201.125 209.046 L 202.625 208.827 L 203.399 208.125 L 204.626 207.875 L 205.500 207.155 L 206.625 206.863 L 207.500 206.148 L 208.500 205.848 L 209.250 205.090 L 211.625 203.790 L 215.625 200.753 L 220.750 195.668 L 224.665 190.375 L 225.009 189.375 L 225.856 188.500 L 226.155 187.500 L 227.780 184.750 L 229.735 179.500 L 230.242 176.750 L 230.791 175.375 L 231.780 168.375 L 231.765 161.875 L 230.750 154.404 L 228.805 147.500 L 228.089 146.500 L 227.768 145.125 L 226.136 142.250 L 225.775 141.125 L 225.086 140.375 L 224.782 139.375 L 224.125 138.743 L 222.775 136.375 L 217.508 130.250 L 211.562 125.125 L 209.000 123.636 L 208.211 122.625 L 208.826 115.000 L 208.783 101.125 L 207.764 94.625 L 207.034 92.875 L 206.816 91.375 L 206.116 90.375 L 205.770 89.000 L 204.164 86.375 L 203.853 85.375 L 203.069 84.625 L 201.839 82.375 L 198.644 78.500 L 195.625 75.225 L 189.694 70.125 L 185.500 67.046 L 179.250 63.200 L 177.903 62.750 L 175.125 61.104 L 173.625 60.767 L 172.750 60.098 L 171.250 59.825 L 170.375 59.173 L 169.000 58.695 L 167.840 54.000 L 166.830 52.250 L 165.256 50.375 L 162.400 48.000 L 161.250 47.840 L 159.625 46.996 L 155.375 47.094 L 154.375 47.744 L 153.250 48.038 L 151.625 49.342 L 149.123 52.250 L 148.638 53.500 L 148.125 53.745 L 142.500 53.122 L 136.250 53.003 L 123.750 53.986 L 114.416 56.125 L 113.125 56.782 L 111.500 57.134 L 110.500 57.802 L 109.250 58.053 L 108.375 58.757 L 107.250 59.014 L 106.375 59.686 L 105.375 60.014 L 104.500 60.853 L 103.500 61.156 L 99.500 64.214 L 97.250 66.305 L 94.750 69.589 L 93.125 71.262 L 91.848 73.500 L 91.044 74.250 L 86.730 80.375 L 83.000 84.280 L 82.273 85.500 L 82.875 85.871 L 86.625 86.029 L 88.500 86.769 L 90.875 87.012 L 92.750 87.736 L 94.750 88.026 L 96.375 88.705 L 98.625 89.080 L 100.000 89.776 L 101.875 90.067 L 103.250 90.713 L 108.166 92.125 L 109.375 92.774 L 111.000 93.102 L 115.000 94.838 L 116.454 95.125 L 117.375 95.778 L 118.875 96.087 L 122.125 97.838 L 123.500 98.087 L 124.250 98.799 L 125.625 99.087 L 126.375 99.762 L 127.750 100.073 L 128.625 100.750 L 132.125 102.123 L 133.000 102.796 L 134.500 103.067 L 135.375 103.852 L 136.750 104.033 L 137.750 104.772 L 139.375 105.098 L 140.250 105.752 L 141.750 106.057 L 142.625 106.702 L 144.250 107.088 L 145.375 107.793 L 146.750 108.030 L 147.875 108.788 L 149.625 109.032 L 150.875 109.719 L 159.250 112.114 L 160.750 112.788 L 163.000 113.114 L 164.250 113.870 L 168.000 114.632 L 168.747 115.250 L 168.375 115.813 L 164.500 115.994 L 162.500 116.796 L 157.625 117.083 L 154.125 117.918 L 147.625 117.879 L 143.875 117.015 L 141.500 116.805 L 140.000 116.062 L 137.875 115.808 L 136.625 115.012 L 135.125 114.839 L 133.922 114.125 L 132.125 113.825 L 128.500 112.118 L 124.375 110.760 L 123.421 110.125 L 119.625 108.692 L 118.750 108.078 L 117.500 107.749 L 116.625 107.059 L 115.375 106.817 L 114.473 106.125 L 113.125 105.770 L 110.125 104.120 L 108.777 103.750 L 105.750 102.029 L 104.375 101.773 L 103.500 101.011 L 102.250 100.779 L 101.500 100.154 L 100.125 99.825 L 99.125 99.076 L 97.625 98.781 L 96.625 98.009 L 95.250 97.851 L 94.250 97.104 L 92.500 96.826 L 91.375 96.061 L 89.875 95.845 L 88.500 95.117 L 86.750 94.806 L 85.250 94.067 L 83.250 93.812 L 81.750 93.150 L 74.750 92.083 L 69.250 91.955 L 64.500 92.204 L 59.344 93.125 L 57.625 93.817 L 55.625 94.137 L 54.625 94.792 L 53.250 95.031 L 52.250 95.744 L 51.000 96.094 L 47.575 98.250 L 45.142 100.375 L 43.116 103.750 L 42.204 108.250 L 42.993 112.625 L 44.125 114.707 L 47.250 117.815 L 48.375 118.161 L 49.250 118.841 L 50.875 119.056 L 52.750 119.822 L 56.500 120.008 L 59.250 120.828 L 65.250 121.421 L 65.884 121.750 L 66.187 122.375 L 65.750 122.848 L 64.375 123.131 L 60.192 126.125 L 55.497 130.375 L 51.125 135.256 L 48.223 139.500 L 46.125 143.188 L 45.742 144.375 L 45.050 145.375 L 44.767 146.625 L 44.093 147.625 L 43.711 149.375 L 43.077 150.375 L 42.781 152.500 L 42.024 154.125 L 41.837 156.625 L 41.036 160.000 L 40.957 168.875 L 41.750 172.625 L 42.079 175.875 L 42.750 177.380 L 43.071 179.500 L 43.750 180.641 L 44.069 182.250 L 44.791 183.375 L 45.051 184.625 L 48.155 190.375 L 51.118 194.625 L 58.208 201.750 L 62.375 204.756 L 69.761 208.750 L 71.375 209.057 L 72.500 209.869 L 74.375 210.092 L 75.625 210.839 L 78.000 211.054 L 80.500 211.906 L 86.625 212.417 L 90.402 212.375 Z M 186.875 196.882 L 181.375 196.839 L 178.000 196.002 L 175.875 195.813 L 174.625 195.057 L 172.875 194.775 L 168.926 192.750 L 164.375 189.641 L 160.157 185.500 L 158.048 182.625 L 156.174 179.375 L 155.750 177.919 L 155.027 176.750 L 154.739 175.250 L 154.052 174.000 L 152.981 168.500 L 152.986 160.750 L 153.798 157.750 L 154.075 155.375 L 156.102 150.125 L 159.125 145.184 L 162.572 141.250 L 166.250 138.068 L 168.625 136.795 L 169.375 136.062 L 170.500 135.772 L 171.375 134.993 L 172.625 134.852 L 173.625 134.082 L 175.625 133.804 L 176.875 133.083 L 182.250 132.263 L 185.500 132.288 L 188.375 132.855 L 191.000 133.015 L 192.625 133.795 L 194.500 134.078 L 195.375 134.780 L 196.750 135.032 L 197.625 135.704 L 198.750 136.070 L 199.500 136.750 L 200.500 137.004 L 205.670 141.125 L 207.750 143.255 L 210.750 147.301 L 212.820 151.125 L 214.823 156.875 L 215.825 163.375 L 215.861 166.250 L 215.545 169.000 L 215.031 170.625 L 214.853 172.875 L 214.125 174.459 L 213.806 176.250 L 213.112 177.250 L 212.839 178.500 L 212.144 179.375 L 211.738 180.500 L 208.625 184.991 L 206.213 187.625 L 202.683 190.750 L 200.251 192.125 L 199.517 192.875 L 198.500 193.129 L 197.625 193.856 L 196.250 194.084 L 195.375 194.804 L 193.625 195.110 L 192.500 195.815 L 190.250 196.035 L 186.875 196.882 Z M 89.250 196.875 L 86.500 196.830 L 83.125 196.035 L 81.000 195.846 L 79.500 195.089 L 77.750 194.778 L 76.672 194.000 L 75.500 193.833 L 74.625 193.039 L 73.500 192.760 L 70.375 190.746 L 66.124 186.875 L 63.154 183.500 L 61.125 180.600 L 60.835 179.375 L 60.077 178.500 L 59.793 177.125 L 59.030 175.875 L 58.758 174.250 L 58.009 172.875 L 57.048 165.500 L 57.205 162.125 L 57.821 159.750 L 58.002 157.125 L 58.762 155.500 L 59.094 153.625 L 59.822 152.625 L 60.084 151.250 L 60.808 150.500 L 61.055 149.375 L 61.772 148.625 L 63.067 146.250 L 65.330 143.375 L 71.250 138.051 L 73.625 136.825 L 74.375 136.047 L 75.625 135.827 L 76.375 135.085 L 77.750 134.860 L 78.875 134.091 L 80.750 133.791 L 82.375 133.065 L 88.375 132.442 L 95.375 133.006 L 97.125 133.816 L 99.125 134.066 L 100.125 134.812 L 101.500 135.057 L 102.375 135.833 L 103.500 136.100 L 104.250 136.823 L 106.504 138.000 L 110.322 141.375 L 114.714 146.500 L 117.725 152.250 L 118.093 153.875 L 118.860 155.375 L 119.856 160.375 L 119.966 163.375 L 119.811 169.500 L 118.763 174.250 L 118.125 175.520 L 117.760 177.125 L 114.799 182.625 L 110.750 187.640 L 105.500 191.850 L 102.093 193.750 L 100.623 194.125 L 99.750 194.819 L 98.125 195.027 L 96.625 195.860 L 94.500 196.029 L 91.750 196.754 L 89.250 196.875 Z M 100.570 182.250 L 100.808 181.250 L 100.190 179.750 L 99.592 175.625 L 98.969 173.625 L 98.758 171.125 L 98.021 169.375 L 101.250 166.231 L 107.750 160.682 L 108.028 159.500 L 107.375 158.976 L 104.625 158.826 L 102.625 158.024 L 100.125 157.874 L 97.875 157.047 L 95.250 156.802 L 94.103 155.000 L 93.789 153.500 L 92.997 152.500 L 92.836 151.250 L 92.112 150.500 L 91.841 149.125 L 91.136 148.250 L 90.750 146.771 L 90.043 145.875 L 89.781 144.250 L 89.375 143.838 L 88.625 143.786 L 88.073 144.250 L 87.875 145.679 L 87.125 146.623 L 86.810 147.875 L 85.113 151.000 L 83.715 154.625 L 82.399 156.625 L 81.500 156.925 L 78.500 157.044 L 75.875 157.835 L 73.125 158.016 L 70.625 158.842 L 69.375 158.847 L 68.956 159.500 L 78.748 169.000 L 78.750 169.731 L 78.068 171.125 L 77.723 174.625 L 77.014 176.375 L 76.783 179.500 L 76.000 181.031 L 76.250 182.100 L 77.375 181.899 L 78.375 181.089 L 79.499 180.750 L 80.375 180.038 L 81.375 179.800 L 82.250 179.038 L 83.327 178.750 L 85.750 177.137 L 88.375 175.937 L 90.625 177.024 L 91.375 177.779 L 92.500 178.086 L 93.250 178.810 L 96.734 180.750 L 100.125 182.290 L 100.570 182.250 Z M 195.656 182.125 L 196.015 181.375 L 195.847 179.625 L 195.125 177.028 L 194.875 174.271 L 194.059 171.125 L 193.915 169.250 L 202.375 161.167 L 203.481 160.500 L 203.749 159.500 L 203.125 159.010 L 200.750 158.836 L 198.625 158.032 L 196.125 157.886 L 193.500 157.074 L 191.125 156.894 L 190.375 156.591 L 189.125 154.182 L 188.750 152.866 L 188.053 151.875 L 187.747 150.625 L 187.032 149.750 L 186.796 148.500 L 186.028 147.625 L 185.785 146.250 L 185.079 145.500 L 184.877 144.125 L 184.250 143.860 L 183.133 145.250 L 182.854 146.500 L 182.110 147.375 L 181.812 148.625 L 181.084 149.500 L 180.834 150.750 L 179.085 154.000 L 178.744 155.375 L 177.662 156.750 L 173.625 157.058 L 171.125 157.830 L 168.500 158.037 L 166.625 158.790 L 164.375 158.973 L 164.095 159.500 L 168.375 163.651 L 173.750 168.166 L 174.245 169.125 L 173.780 172.875 L 173.025 175.500 L 172.795 178.500 L 171.932 180.500 L 171.923 181.375 L 172.238 181.875 L 173.000 181.862 L 173.875 181.103 L 178.625 178.835 L 179.375 178.090 L 180.500 177.850 L 181.250 177.075 L 182.500 176.855 L 183.250 176.044 L 184.000 175.871 L 186.625 177.059 L 187.375 177.837 L 188.500 178.114 L 189.125 178.762 L 190.250 179.163 L 192.625 180.727 L 193.750 181.097 L 194.875 182.039 L 195.656 182.125 Z M 136.750 163.758 L 135.250 163.723 L 132.625 162.845 L 131.250 161.824 L 130.056 160.500 L 129.765 159.250 L 129.078 158.375 L 128.939 157.375 L 129.116 154.875 L 130.140 152.625 L 131.217 151.250 L 133.125 150.042 L 136.375 149.201 L 139.500 150.005 L 141.750 152.122 L 142.815 153.750 L 143.077 156.250 L 142.851 159.125 L 141.667 160.875 L 139.625 162.798 L 136.750 163.758 Z"/><path fill="black" fill-rule="evenodd" d="M 89.250 196.875 L 86.500 196.830 L 83.125 196.035 L 81.000 195.846 L 79.500 195.089 L 77.750 194.778 L 76.672 194.000 L 75.500 193.833 L 74.625 193.039 L 73.500 192.760 L 70.375 190.746 L 66.124 186.875 L 63.154 183.500 L 61.125 180.600 L 60.835 179.375 L 60.077 178.500 L 59.793 177.125 L 59.030 175.875 L 58.758 174.250 L 58.009 172.875 L 57.048 165.500 L 57.205 162.125 L 57.821 159.750 L 58.002 157.125 L 58.762 155.500 L 59.094 153.625 L 59.822 152.625 L 60.084 151.250 L 60.808 150.500 L 61.055 149.375 L 61.772 148.625 L 63.067 146.250 L 65.330 143.375 L 71.250 138.051 L 73.625 136.825 L 74.375 136.047 L 75.625 135.827 L 76.375 135.085 L 77.750 134.860 L 78.875 134.091 L 80.750 133.791 L 82.375 133.065 L 88.375 132.442 L 95.375 133.006 L 97.125 133.816 L 99.125 134.066 L 100.125 134.812 L 101.500 135.057 L 102.375 135.833 L 103.500 136.100 L 104.250 136.823 L 106.504 138.000 L 110.322 141.375 L 114.714 146.500 L 117.725 152.250 L 118.093 153.875 L 118.860 155.375 L 119.856 160.375 L 119.966 163.375 L 119.811 169.500 L 118.763 174.250 L 118.125 175.520 L 117.760 177.125 L 114.799 182.625 L 110.750 187.640 L 105.500 191.850 L 102.093 193.750 L 100.623 194.125 L 99.750 194.819 L 98.125 195.027 L 96.625 195.860 L 94.500 196.029 L 91.750 196.754 L 89.250 196.875 Z M 100.570 182.250 L 100.808 181.250 L 100.190 179.750 L 99.592 175.625 L 98.969 173.625 L 98.758 171.125 L 98.021 169.375 L 101.250 166.231 L 107.750 160.682 L 108.028 159.500 L 107.375 158.976 L 104.625 158.826 L 102.625 158.024 L 100.125 157.874 L 97.875 157.047 L 95.250 156.802 L 94.103 155.000 L 93.789 153.500 L 92.997 152.500 L 92.836 151.250 L 92.112 150.500 L 91.841 149.125 L 91.136 148.250 L 90.750 146.771 L 90.043 145.875 L 89.781 144.250 L 89.375 143.838 L 88.625 143.786 L 88.073 144.250 L 87.875 145.679 L 87.125 146.623 L 86.810 147.875 L 85.113 151.000 L 83.715 154.625 L 82.399 156.625 L 81.500 156.925 L 78.500 157.044 L 75.875 157.835 L 73.125 158.016 L 70.625 158.842 L 69.375 158.847 L 68.956 159.500 L 78.748 169.000 L 78.750 169.731 L 78.068 171.125 L 77.723 174.625 L 77.014 176.375 L 76.783 179.500 L 76.000 181.031 L 76.250 182.100 L 77.375 181.899 L 78.375 181.089 L 79.499 180.750 L 80.375 180.038 L 81.375 179.800 L 82.250 179.038 L 83.327 178.750 L 85.750 177.137 L 88.375 175.937 L 90.625 177.024 L 91.375 177.779 L 92.500 178.086 L 93.250 178.810 L 96.734 180.750 L 100.125 182.290 L 100.570 182.250 Z"/><path fill="black" fill-rule="evenodd" d="M 136.750 163.758 L 135.250 163.723 L 132.625 162.845 L 131.250 161.824 L 130.056 160.500 L 129.765 159.250 L 129.078 158.375 L 128.939 157.375 L 129.116 154.875 L 130.140 152.625 L 131.217 151.250 L 133.125 150.042 L 136.375 149.201 L 139.500 150.005 L 141.750 152.122 L 142.815 153.750 L 143.077 156.250 L 142.851 159.125 L 141.667 160.875 L 139.625 162.798 L 136.750 163.758 Z"/><path fill="black" fill-rule="evenodd" d="M 186.875 196.882 L 181.375 196.839 L 178.000 196.002 L 175.875 195.813 L 174.625 195.057 L 172.875 194.775 L 168.926 192.750 L 164.375 189.641 L 160.157 185.500 L 158.048 182.625 L 156.174 179.375 L 155.750 177.919 L 155.027 176.750 L 154.739 175.250 L 154.052 174.000 L 152.981 168.500 L 152.986 160.750 L 153.798 157.750 L 154.075 155.375 L 156.102 150.125 L 159.125 145.184 L 162.572 141.250 L 166.250 138.068 L 168.625 136.795 L 169.375 136.062 L 170.500 135.772 L 171.375 134.993 L 172.625 134.852 L 173.625 134.082 L 175.625 133.804 L 176.875 133.083 L 182.250 132.263 L 185.500 132.288 L 188.375 132.855 L 191.000 133.015 L 192.625 133.795 L 194.500 134.078 L 195.375 134.780 L 196.750 135.032 L 197.625 135.704 L 198.750 136.070 L 199.500 136.750 L 200.500 137.004 L 205.670 141.125 L 207.750 143.255 L 210.750 147.301 L 212.820 151.125 L 214.823 156.875 L 215.825 163.375 L 215.861 166.250 L 215.545 169.000 L 215.031 170.625 L 214.853 172.875 L 214.125 174.459 L 213.806 176.250 L 213.112 177.250 L 212.839 178.500 L 212.144 179.375 L 211.738 180.500 L 208.625 184.991 L 206.213 187.625 L 202.683 190.750 L 200.251 192.125 L 199.517 192.875 L 198.500 193.129 L 197.625 193.856 L 196.250 194.084 L 195.375 194.804 L 193.625 195.110 L 192.500 195.815 L 190.250 196.035 L 186.875 196.882 Z M 195.656 182.125 L 196.015 181.375 L 195.847 179.625 L 195.125 177.028 L 194.875 174.271 L 194.059 171.125 L 193.915 169.250 L 202.375 161.167 L 203.481 160.500 L 203.749 159.500 L 203.125 159.010 L 200.750 158.836 L 198.625 158.032 L 196.125 157.886 L 193.500 157.074 L 191.125 156.894 L 190.375 156.591 L 189.125 154.182 L 188.750 152.866 L 188.053 151.875 L 187.747 150.625 L 187.032 149.750 L 186.796 148.500 L 186.028 147.625 L 185.785 146.250 L 185.079 145.500 L 184.877 144.125 L 184.250 143.860 L 183.133 145.250 L 182.854 146.500 L 182.110 147.375 L 181.812 148.625 L 181.084 149.500 L 180.834 150.750 L 179.085 154.000 L 178.744 155.375 L 177.662 156.750 L 173.625 157.058 L 171.125 157.830 L 168.500 158.037 L 166.625 158.790 L 164.375 158.973 L 164.095 159.500 L 168.375 163.651 L 173.750 168.166 L 174.245 169.125 L 173.780 172.875 L 173.025 175.500 L 172.795 178.500 L 171.932 180.500 L 171.923 181.375 L 172.238 181.875 L 173.000 181.862 L 173.875 181.103 L 178.625 178.835 L 179.375 178.090 L 180.500 177.850 L 181.250 177.075 L 182.500 176.855 L 183.250 176.044 L 184.000 175.871 L 186.625 177.059 L 187.375 177.837 L 188.500 178.114 L 189.125 178.762 L 190.250 179.163 L 192.625 180.727 L 193.750 181.097 L 194.875 182.039 L 195.656 182.125 Z"/><path fill="black" fill-rule="evenodd" d="M 337.125 196.877 L 327.500 196.912 L 325.375 196.045 L 323.375 195.849 L 322.500 195.117 L 321.125 194.834 L 320.250 194.177 L 319.125 193.802 L 316.250 191.830 L 313.125 188.794 L 311.500 186.350 L 311.125 186.521 L 310.919 187.125 L 310.878 193.375 L 310.670 195.250 L 310.250 195.781 L 291.875 195.973 L 291.014 195.500 L 290.992 83.875 L 291.500 83.026 L 311.125 82.900 L 311.875 83.292 L 311.830 121.625 L 312.125 122.565 L 312.736 122.500 L 313.166 121.250 L 315.311 119.125 L 319.500 116.151 L 321.000 115.770 L 322.125 115.019 L 323.750 114.792 L 324.874 114.125 L 332.500 113.382 L 339.125 114.085 L 340.625 114.812 L 342.500 115.087 L 343.500 115.807 L 345.164 116.125 L 348.625 118.056 L 349.375 118.827 L 351.625 120.131 L 354.783 123.250 L 357.776 127.125 L 359.073 129.625 L 359.797 130.375 L 360.072 131.500 L 360.757 132.375 L 361.116 133.750 L 361.777 134.750 L 362.125 136.491 L 362.851 137.625 L 363.050 139.500 L 363.771 140.875 L 364.033 144.000 L 364.840 147.000 L 365.011 155.000 L 364.817 163.500 L 364.080 165.750 L 363.861 168.750 L 363.070 170.625 L 362.849 172.625 L 362.061 173.875 L 361.812 175.500 L 361.103 176.375 L 360.821 177.750 L 360.170 178.625 L 359.790 179.750 L 356.770 184.500 L 350.560 190.750 L 348.375 192.053 L 347.625 192.841 L 344.625 194.165 L 343.750 194.841 L 342.500 195.137 L 341.500 195.849 L 339.625 196.036 L 337.125 196.877 Z M 328.305 178.875 L 333.125 177.818 L 334.125 177.069 L 335.375 176.710 L 338.715 173.750 L 340.739 171.000 L 341.150 169.750 L 341.833 168.750 L 342.056 167.125 L 342.876 165.500 L 343.879 158.375 L 343.878 150.625 L 342.838 144.500 L 342.096 143.000 L 341.750 141.507 L 339.794 138.250 L 337.718 136.125 L 336.500 135.012 L 333.125 133.062 L 331.375 132.838 L 329.000 132.077 L 324.500 132.030 L 321.750 132.891 L 320.359 133.000 L 319.391 133.750 L 318.250 134.081 L 315.125 137.144 L 314.125 138.576 L 313.791 139.875 L 313.036 141.000 L 312.867 142.750 L 312.191 144.250 L 311.950 145.625 L 311.972 164.750 L 312.846 167.750 L 313.053 169.750 L 313.735 170.625 L 314.071 171.875 L 315.052 173.625 L 317.250 175.815 L 320.625 177.858 L 324.500 178.838 L 328.305 178.875 Z"/><path fill="black" fill-rule="evenodd" d="M 410.625 197.128 L 401.750 196.862 L 399.250 196.063 L 397.125 195.822 L 395.750 195.018 L 394.125 194.838 L 393.166 194.125 L 389.750 192.749 L 385.207 189.750 L 379.150 183.500 L 375.067 176.625 L 373.729 172.500 L 373.087 171.375 L 372.750 169.150 L 372.074 167.625 L 371.842 164.750 L 370.989 160.875 L 371.004 150.750 L 371.749 147.000 L 372.054 143.375 L 372.750 141.875 L 373.077 139.375 L 373.750 138.192 L 374.148 136.500 L 374.814 135.500 L 375.089 134.125 L 377.048 130.375 L 377.764 129.625 L 379.105 127.250 L 383.485 122.250 L 387.250 119.084 L 389.750 117.792 L 390.500 117.087 L 391.625 116.838 L 392.500 116.043 L 394.125 115.796 L 395.250 115.042 L 397.000 114.789 L 398.750 114.101 L 405.000 113.246 L 410.500 113.389 L 413.125 113.899 L 416.125 114.092 L 418.125 114.848 L 420.125 115.092 L 421.125 115.832 L 422.375 116.058 L 423.250 116.822 L 424.500 117.066 L 425.250 117.815 L 426.375 118.181 L 429.250 120.290 L 432.595 123.250 L 435.750 127.126 L 437.074 129.500 L 437.826 130.250 L 438.164 131.375 L 438.850 132.250 L 439.122 133.375 L 439.859 134.250 L 440.043 135.625 L 440.802 136.625 L 441.031 138.500 L 441.840 140.000 L 442.051 142.500 L 442.847 145.000 L 443.314 151.000 L 443.501 160.000 L 443.250 160.611 L 442.625 160.912 L 392.750 160.891 L 391.871 161.250 L 392.137 165.500 L 392.803 167.125 L 393.075 168.750 L 394.125 171.001 L 395.124 172.625 L 398.125 175.730 L 399.500 176.774 L 400.625 177.037 L 401.500 177.862 L 403.125 178.046 L 405.500 178.845 L 412.125 178.940 L 414.375 178.833 L 416.375 178.063 L 418.625 177.838 L 420.125 177.015 L 421.625 176.815 L 422.500 176.131 L 423.750 175.838 L 424.625 175.165 L 425.625 174.842 L 426.375 174.110 L 427.375 173.778 L 428.723 172.750 L 430.574 171.000 L 431.375 170.752 L 433.669 173.375 L 438.045 179.500 L 440.627 182.500 L 440.699 183.250 L 439.784 184.625 L 436.625 187.796 L 433.250 190.089 L 432.625 190.820 L 430.125 192.077 L 429.375 192.754 L 428.125 193.078 L 427.375 193.768 L 425.875 194.062 L 424.625 194.884 L 423.125 195.052 L 421.875 195.772 L 419.375 196.028 L 417.375 196.805 L 410.625 197.128 Z M 422.505 147.250 L 422.962 146.375 L 422.810 143.000 L 422.122 141.500 L 421.763 139.500 L 421.094 138.750 L 420.725 137.625 L 419.808 136.250 L 417.625 134.070 L 416.282 133.125 L 415.125 132.769 L 414.375 132.105 L 410.625 131.125 L 409.000 130.968 L 404.875 131.038 L 402.875 131.823 L 401.250 132.054 L 399.375 133.048 L 396.898 135.125 L 394.175 138.500 L 393.128 140.625 L 392.719 142.500 L 392.011 144.125 L 391.787 146.250 L 392.047 147.000 L 392.625 147.344 L 394.000 147.122 L 422.505 147.250 Z"/><path fill="black" fill-rule="evenodd" d="M 486.375 197.131 L 474.250 196.865 L 471.750 196.056 L 469.125 195.813 L 467.750 195.061 L 465.875 194.859 L 464.375 194.051 L 462.500 193.808 L 461.585 193.125 L 460.000 192.802 L 458.875 192.047 L 457.500 191.844 L 456.625 191.063 L 455.375 190.808 L 454.625 190.068 L 453.375 189.810 L 452.625 189.084 L 451.430 188.500 L 450.877 187.500 L 450.975 185.125 L 451.767 181.500 L 452.012 177.500 L 452.848 173.375 L 453.322 167.500 L 453.750 167.031 L 454.500 167.007 L 455.375 167.912 L 458.567 169.750 L 459.750 170.082 L 460.500 170.738 L 461.875 171.116 L 462.650 171.750 L 464.178 172.125 L 465.250 172.889 L 466.500 173.035 L 467.500 173.797 L 469.375 174.082 L 470.750 174.858 L 472.750 175.041 L 474.125 175.844 L 476.750 176.016 L 480.506 176.875 L 489.336 176.750 L 491.500 176.033 L 493.602 175.875 L 494.750 175.088 L 496.375 174.757 L 499.125 172.676 L 500.701 171.000 L 501.838 169.250 L 502.727 165.375 L 502.462 162.000 L 501.787 159.625 L 500.729 158.000 L 499.125 156.257 L 496.573 154.125 L 495.454 153.750 L 494.625 153.015 L 493.500 152.827 L 492.625 152.077 L 491.125 151.839 L 489.875 151.054 L 488.000 150.855 L 486.250 150.072 L 484.375 149.848 L 482.511 149.125 L 480.000 148.790 L 473.105 146.750 L 472.000 146.094 L 470.500 145.689 L 469.625 145.062 L 468.375 144.776 L 467.500 144.027 L 466.375 143.784 L 465.730 143.125 L 464.625 142.692 L 460.375 139.719 L 456.080 135.500 L 454.750 133.281 L 454.069 132.625 L 452.109 129.000 L 450.096 122.750 L 449.617 116.750 L 449.999 109.500 L 451.128 104.750 L 451.817 103.750 L 452.068 102.500 L 452.791 101.625 L 453.085 100.500 L 454.737 98.375 L 455.146 97.375 L 459.250 93.076 L 463.250 90.104 L 467.000 88.082 L 468.390 87.750 L 469.375 87.045 L 470.875 86.845 L 472.250 86.083 L 474.625 85.804 L 476.500 85.076 L 485.000 84.341 L 497.125 84.985 L 499.750 85.814 L 502.375 86.035 L 503.875 86.786 L 506.000 87.081 L 507.125 87.830 L 508.750 88.031 L 509.750 88.748 L 511.229 89.125 L 512.158 89.750 L 513.500 90.095 L 514.375 90.803 L 515.625 91.128 L 516.102 92.500 L 515.870 112.250 L 515.250 112.641 L 512.625 111.156 L 511.125 110.780 L 510.250 110.111 L 508.750 109.760 L 507.500 109.064 L 506.000 108.786 L 504.750 108.074 L 503.250 107.793 L 502.000 107.063 L 500.000 106.834 L 498.375 106.060 L 495.875 105.837 L 493.841 105.125 L 486.250 104.699 L 479.375 104.989 L 478.125 105.762 L 476.500 106.101 L 474.666 107.250 L 472.260 109.375 L 471.122 111.125 L 470.128 114.250 L 470.039 116.375 L 470.250 118.855 L 471.125 121.328 L 472.125 122.687 L 475.250 125.739 L 478.750 127.762 L 484.250 129.823 L 486.250 130.170 L 488.097 130.875 L 489.875 131.080 L 491.750 131.804 L 494.125 132.121 L 495.750 132.839 L 497.750 133.013 L 499.250 133.834 L 501.250 134.092 L 502.250 134.864 L 503.625 135.047 L 504.500 135.759 L 505.626 136.000 L 506.500 136.720 L 507.625 137.027 L 508.402 137.750 L 509.500 138.110 L 513.517 141.125 L 515.750 143.331 L 518.790 147.250 L 520.756 150.875 L 521.125 152.273 L 521.775 153.375 L 522.801 157.250 L 523.405 163.625 L 522.776 172.625 L 521.750 176.240 L 521.006 177.375 L 520.818 178.500 L 520.094 179.375 L 519.743 180.500 L 516.800 184.625 L 512.625 188.758 L 510.375 190.112 L 509.625 190.849 L 507.125 192.112 L 506.500 192.753 L 505.250 193.029 L 504.375 193.783 L 502.875 194.062 L 501.625 194.865 L 499.750 195.025 L 498.500 195.841 L 496.250 195.983 L 493.625 196.809 L 486.375 197.131 Z"/><path fill="black" fill-rule="evenodd" d="M 568.250 197.127 L 560.375 196.830 L 558.250 196.048 L 556.125 195.831 L 554.750 195.028 L 553.250 194.846 L 552.375 194.124 L 551.125 193.820 L 550.375 193.161 L 549.125 192.794 L 548.375 192.097 L 547.375 191.854 L 542.125 187.685 L 538.140 183.375 L 537.750 182.496 L 536.068 180.500 L 534.130 177.250 L 533.783 176.125 L 533.074 175.375 L 532.842 174.125 L 532.042 173.000 L 531.781 171.375 L 531.057 170.375 L 530.820 168.250 L 530.051 166.750 L 529.844 164.000 L 529.078 161.375 L 528.954 158.750 L 528.996 151.500 L 529.859 147.250 L 530.022 144.375 L 530.823 143.000 L 531.019 141.000 L 531.837 139.750 L 532.000 138.232 L 532.750 137.119 L 533.117 135.625 L 533.810 134.750 L 534.125 133.608 L 535.702 131.250 L 536.062 130.250 L 536.750 129.597 L 538.125 127.344 L 541.125 123.960 L 545.250 120.112 L 547.625 118.784 L 548.375 118.034 L 549.500 117.720 L 550.250 117.024 L 551.375 116.765 L 552.375 116.009 L 553.750 115.811 L 554.875 115.086 L 556.750 114.871 L 558.500 114.101 L 566.750 113.191 L 569.375 113.213 L 575.875 114.024 L 578.123 114.875 L 579.875 115.045 L 581.125 115.828 L 582.500 116.023 L 583.375 116.757 L 584.625 117.035 L 585.375 117.762 L 586.500 118.040 L 587.250 118.799 L 589.500 120.078 L 593.750 124.201 L 596.750 128.498 L 598.750 132.631 L 599.125 134.498 L 599.881 135.875 L 599.935 136.875 L 599.659 137.500 L 599.125 137.827 L 597.250 138.035 L 596.000 138.828 L 594.250 139.002 L 592.875 139.828 L 591.250 140.048 L 590.000 140.784 L 588.125 141.018 L 586.750 141.791 L 585.125 142.022 L 583.750 142.722 L 582.375 142.975 L 581.232 142.375 L 580.790 140.375 L 578.750 137.190 L 576.625 135.104 L 573.250 133.094 L 571.250 132.839 L 568.875 132.100 L 565.500 132.071 L 564.125 132.285 L 562.625 132.905 L 561.250 133.028 L 559.170 134.125 L 556.375 136.423 L 554.077 139.250 L 553.741 140.250 L 553.000 141.239 L 552.750 142.590 L 552.073 143.500 L 551.813 146.000 L 551.049 148.000 L 551.047 162.125 L 551.867 164.125 L 552.071 166.250 L 552.750 167.306 L 553.013 168.750 L 554.081 170.750 L 556.087 173.625 L 558.500 175.827 L 561.875 177.819 L 563.655 178.000 L 566.625 178.834 L 570.579 178.625 L 573.875 177.839 L 575.000 177.082 L 576.375 176.665 L 577.750 175.684 L 580.750 172.664 L 582.750 169.378 L 583.035 168.250 L 583.625 167.915 L 588.250 169.104 L 589.750 169.832 L 591.625 170.075 L 593.125 170.865 L 595.125 171.061 L 596.493 171.875 L 598.500 172.016 L 599.500 172.689 L 600.875 173.060 L 601.205 173.500 L 600.872 175.750 L 600.093 176.875 L 599.821 178.500 L 599.135 179.375 L 598.837 180.625 L 598.138 181.500 L 597.750 182.622 L 595.673 185.500 L 593.625 187.729 L 588.601 191.750 L 587.429 192.125 L 586.625 192.858 L 585.500 193.118 L 584.641 193.875 L 583.375 194.029 L 582.375 194.842 L 580.500 195.087 L 579.375 195.831 L 577.250 196.033 L 575.125 196.861 L 568.250 197.127 Z M 604.875 163.306 L 604.138 156.625 L 604.230 152.750 L 604.875 147.816 Z"/><path fill="black" fill-rule="evenodd" d="M 645.625 197.003 L 635.500 196.876 L 632.750 196.003 L 630.750 195.824 L 629.250 195.037 L 627.625 194.838 L 626.625 194.039 L 625.250 193.832 L 624.500 193.091 L 623.375 192.826 L 622.625 192.115 L 621.500 191.721 L 616.375 187.581 L 611.210 181.375 L 609.103 177.875 L 608.679 176.500 L 608.035 175.750 L 607.794 174.250 L 607.039 173.375 L 606.819 171.625 L 606.070 170.500 L 605.822 168.250 L 605.014 166.500 L 604.898 163.500 L 604.189 158.125 L 604.203 153.125 L 604.881 147.750 L 604.982 144.750 L 605.805 142.625 L 606.030 140.250 L 606.822 139.000 L 607.019 137.250 L 607.732 136.250 L 609.144 132.500 L 613.139 126.375 L 618.250 121.111 L 621.250 119.026 L 623.871 117.750 L 624.625 117.123 L 625.875 116.808 L 627.000 116.052 L 628.500 115.778 L 629.500 115.121 L 631.625 114.874 L 633.250 114.124 L 641.000 113.260 L 644.500 113.341 L 651.000 114.068 L 652.750 114.830 L 654.750 115.080 L 656.000 115.826 L 657.625 116.012 L 663.500 119.054 L 668.744 123.250 L 670.750 125.325 L 673.793 129.250 L 675.095 131.625 L 675.868 132.375 L 676.125 133.465 L 676.875 134.303 L 677.125 135.455 L 677.823 136.250 L 678.043 137.750 L 678.836 138.875 L 679.042 140.625 L 679.825 141.875 L 680.040 144.125 L 680.787 146.000 L 681.355 154.500 L 680.874 164.250 L 680.000 167.112 L 679.804 169.250 L 679.100 170.375 L 678.790 172.375 L 678.066 173.375 L 677.863 174.750 L 677.139 175.750 L 676.750 176.963 L 675.151 179.500 L 674.833 180.500 L 671.783 184.625 L 666.500 189.652 L 665.470 190.125 L 663.500 191.800 L 662.375 192.083 L 661.625 192.839 L 660.468 193.125 L 659.625 193.850 L 658.375 194.029 L 657.500 194.819 L 655.625 195.063 L 654.250 195.851 L 652.000 196.038 L 649.500 196.849 L 645.625 197.003 Z M 644.333 178.625 L 648.625 177.829 L 649.793 177.125 L 651.125 176.742 L 652.687 175.750 L 656.840 171.500 L 657.123 170.375 L 657.887 169.500 L 658.094 168.125 L 658.810 167.000 L 659.049 164.375 L 659.765 162.125 L 659.904 149.625 L 659.607 147.750 L 659.018 146.250 L 658.885 144.125 L 658.021 142.750 L 657.829 141.375 L 657.085 140.625 L 656.755 139.500 L 655.750 138.158 L 652.750 135.160 L 651.262 134.125 L 650.125 133.823 L 648.875 133.027 L 644.625 132.095 L 640.875 132.074 L 638.375 132.820 L 636.375 133.014 L 635.458 133.750 L 634.125 134.108 L 631.202 136.250 L 628.096 140.250 L 627.754 141.500 L 627.006 142.375 L 626.801 144.000 L 626.072 145.375 L 625.863 147.875 L 625.248 150.250 L 625.083 158.875 L 625.839 162.625 L 626.029 165.125 L 626.841 167.000 L 627.050 168.500 L 627.758 169.375 L 628.045 170.625 L 631.188 174.625 L 634.250 176.818 L 635.625 177.067 L 636.625 177.799 L 641.250 178.663 L 644.333 178.625 Z"/><path fill="black" fill-rule="evenodd" d="M 721.625 196.881 L 711.375 196.870 L 709.125 196.051 L 707.125 195.829 L 706.125 195.119 L 704.625 194.773 L 703.750 194.070 L 702.625 193.746 L 699.401 191.625 L 696.143 188.500 L 694.120 185.500 L 693.818 184.375 L 693.021 183.500 L 692.806 182.250 L 692.065 181.375 L 691.794 179.500 L 690.997 177.875 L 690.115 170.125 L 690.046 115.375 L 690.375 115.025 L 691.000 114.924 L 710.000 114.893 L 710.855 115.250 L 710.949 161.750 L 711.188 167.000 L 711.850 169.000 L 712.029 171.000 L 712.814 172.125 L 713.058 173.375 L 716.168 176.750 L 717.625 177.731 L 718.875 178.062 L 720.125 178.827 L 724.000 179.084 L 728.500 178.832 L 732.500 176.794 L 735.774 173.500 L 736.125 172.412 L 736.840 171.625 L 737.117 170.250 L 737.837 168.875 L 738.604 163.750 L 738.719 160.625 L 738.681 115.375 L 739.750 114.910 L 759.000 115.091 L 759.427 115.750 L 759.393 195.375 L 759.000 195.791 L 758.250 195.970 L 740.500 195.871 L 739.975 195.125 L 739.436 187.375 L 739.125 186.884 L 738.625 186.776 L 738.125 187.032 L 737.625 188.265 L 736.523 189.500 L 732.500 192.860 L 731.500 193.150 L 730.856 193.750 L 729.625 194.163 L 728.750 194.828 L 727.295 195.125 L 726.375 195.794 L 724.375 196.049 L 721.625 196.881 Z"/><path fill="black" fill-rule="evenodd" d="M 806.250 197.125 L 799.500 196.800 L 797.750 196.026 L 796.000 195.811 L 794.875 195.066 L 793.500 194.753 L 792.833 194.125 L 790.375 192.794 L 789.218 191.750 L 787.078 189.625 L 785.125 186.869 L 784.125 185.115 L 783.785 183.500 L 783.091 182.375 L 782.841 180.000 L 782.218 178.125 L 782.006 176.375 L 781.967 133.375 L 781.125 132.905 L 768.625 133.000 L 767.936 132.375 L 767.928 116.875 L 768.125 116.201 L 768.750 115.934 L 774.250 115.864 L 781.250 115.318 L 781.921 114.750 L 781.927 95.625 L 782.125 94.707 L 782.625 94.310 L 802.375 94.444 L 802.790 94.875 L 802.940 95.625 L 802.763 114.250 L 803.000 114.747 L 803.750 114.970 L 822.125 114.894 L 822.750 115.063 L 823.055 115.500 L 823.101 132.000 L 822.850 132.750 L 822.125 132.991 L 803.750 132.897 L 802.866 133.375 L 802.937 173.625 L 803.054 174.500 L 803.700 175.375 L 804.179 176.750 L 805.625 177.781 L 808.869 178.625 L 811.625 178.606 L 816.500 177.850 L 818.125 177.007 L 819.526 176.875 L 820.500 175.970 L 821.500 176.148 L 821.818 176.750 L 822.077 180.375 L 822.897 182.250 L 823.042 184.500 L 823.822 186.250 L 824.056 188.750 L 824.849 190.375 L 824.918 192.250 L 824.500 192.818 L 823.250 193.007 L 820.000 194.791 L 818.250 195.077 L 816.875 195.837 L 814.875 196.003 L 811.875 196.894 L 806.250 197.125 Z"/></svg>