<?xml version="1.0" encoding="UTF-8"?>
<svg version="1.1" viewBox="0 0 2048 715" width="885" height="309" xmlns="http://www.w3.org/2000/svg">
<path transform="translate(0)" d="m0 0h2048v715h-2048z" fill="#0A0909"/>
<path transform="translate(355,80)" d="m0 0h22l16 4 34 14 91 36 35 14 61 24 11 7 7 8 5 10 2 8v14l-6 100-6 92-3 29-5 21-6 15-8 15-8 11-9 11-13 13-13 10-21 13-26 15-22 13-26 15-29 17-28 17-19 11-15 6h-14l-11-4-22-12-25-15-24-14-24-13-25-15-26-15-24-14-12-9-13-11-11-12-12-17-10-21-5-15-4-21-3-30-5-77-3-48-3-43-1-17v-16l3-12 6-9 5-6 14-8 34-13 47-19 55-22 41-16 38-16z" fill="#0A0909"/>
<path transform="translate(355,80)" d="m0 0h22l16 4 34 14 91 36 35 14 61 24 11 7 7 8 5 10 2 8v14l-6 100-6 92-3 29-5 21-6 15-8 15-8 11-9 11-13 13-13 10-21 13-26 15-22 13-26 15-29 17-28 17-19 11-15 6h-14l-11-4-22-12-25-15-24-14-24-13-25-15-26-15-24-14-12-9-13-11-11-12-12-17-10-21-5-15-4-21-3-30-5-77-3-48-3-43-1-17v-16l3-12 6-9 5-6 14-8 34-13 47-19 55-22 41-16 38-16zm60 63-8 3-5 4-5 8-18-1h-13l-25 2-22 5-13 5-10 5-10 7-10 9-7 9-12 17-9 11-5 6 21 4 31 9 26 9 28 12 15 7 27 11 27 9 25 7v1l-37 5h-9l-20-4-24-8-26-11-28-13-28-12-28-9-11-2-20-1-17 2-18 5-13 7-7 6-5 10-1 4v8l3 10 9 9 11 4 32 5-3 2-11 8-10 9-7 7-6 8-8 13-7 15-5 19-1 7v23l4 20 6 16 8 14 8 10 9 10 13 10 14 8 18 7 17 3 16 1 18-2 15-4 13-5 15-9 11-9 11-11 10-14 7-14 1-4h14l6 14 10 15 12 13 12 10 16 9 12 5 15 4 8 1h23l18-3 17-6 13-7 14-10 6-5 7-8 10-14 8-16 4-14 3-18v-17l-3-19-6-18-8-15-8-11-9-10-10-9-10-7 1-18v-31l-3-18-5-13-7-12-8-10-10-11-11-9-13-9-15-9-20-9-4-12-6-8-7-5-6-2z" fill="#fff"/>
<path transform="translate(727,227)" d="m0 0h48l1 91 7-8 11-7 10-4 13-2h9l17 3 16 7 12 9 8 9 7 11 5 11 5 18 2 13v31l-3 18-6 18-6 11-6 8-6 7-10 8-15 8-10 3-15 1-12-1-14-5-11-7-7-7-3-5-2 22h-45z" fill="#fff"/>
<path transform="translate(1530,297)" d="m0 0h18l17 3 12 4 13 7 10 8 7 7 10 14 6 13 5 16 2 15v21l-3 19-6 18-7 12-7 9-10 10-12 8-15 6-12 3-9 1h-17l-14-2-14-4-15-8-13-12-7-8-9-16-6-18-2-13v-30l3-17 4-13 8-16 8-10 11-11 16-9 15-5z" fill="#fff"/>
<path transform="translate(1170,230)" d="m0 0h21l17 2 16 4 19 8 4 2 1 7-1 42-9-3-18-7-13-4-16-3h-26l-13 5-5 5-4 7-1 4v9l3 9 8 8 16 8 30 8 16 5 14 6 11 8 7 6 8 11 6 13 3 13 1 17-2 15-4 12-7 12-9 10-8 6-14 8-15 5-9 2-9 1h-29l-14-2-16-4-18-7-13-7-1-1v-9l5-36 1-4 4 2 23 11 21 7 12 2h23l12-3 8-4 7-8 3-10-1-11-5-9-11-8-16-6-30-8-20-8-12-8-10-9-8-11-5-10-4-16v-21l2-12 5-12 7-11 10-10 11-7 11-5 13-4z" fill="#fff"/>
<path transform="translate(986,297)" d="m0 0h19l17 3 10 4 11 6 10 9 7 7 8 13 6 14 4 16 1 9v29h-119l3 16 4 9 7 8 7 5 11 3h19l15-4 12-5 11-8h4l14 18 6 8-1 4-5 6-12 9-11 6-12 5-12 3-9 1h-21l-13-2-13-4-14-7-14-12-8-10-8-15-5-15-3-16v-29l4-22 8-20 9-13 9-10 11-8 14-7 13-3z" fill="#fff"/>
<path transform="translate(1651,301)" d="m0 0h47l1 109 2 17 4 10 5 6 10 5h19l10-5 7-8 4-9 2-13 1-112h47v187h-44l-3-21-9 10-9 6-11 5-8 2-17 1-15-2-11-4-12-7-7-7-8-14-4-12-2-21v-122z" fill="#fff"/>
<path transform="translate(471,341)" d="m0 0h15l18 4 14 7 11 9 7 7 8 12 5 12 3 13 1 16-3 16-5 13-7 11-10 11-13 9-11 5-15 4h-19l-16-4-15-8-11-9-10-13-6-12-4-14-1-7v-14l3-16 7-16 9-12 7-7 10-7 12-6z" fill="#fff"/>
<path transform="translate(1357,297)" d="m0 0h18l17 3 13 5 12 7 9 8 9 13 6 14 1 5-9 4-32 10-3-2-4-9-6-7-9-5-10-2-13 1-12 6-8 9-5 12-2 11v28l4 15 5 10 6 7 11 6 10 2 11-1 11-4 8-7 8-12 8 1 28 8 6 3-2 7-5 12-6 9-5 6-14 10-13 6-14 4-10 1h-17l-14-2-13-4-13-7-9-7-11-11-10-15-7-17-4-17-1-9v-13l3-21 7-20 8-14 9-11 9-9 14-9 17-6z" fill="#fff"/>
<path transform="translate(255,341)" d="m0 0 16 1 14 4 12 6 11 9 9 10 8 14 5 16 1 6v18l-4 17-8 16-9 11-11 9-16 8-16 4h-16l-13-3-11-4-11-7-10-9-8-9-8-16-3-10-1-5v-20l3-14 4-9 7-12 11-12 10-8 15-7 11-3z" fill="#fff"/>
<path transform="translate(1863,253)" d="m0 0h48v48h47v41l-46 1v93l3 8 7 3h14l14-4 5-1 5 25 2 8v6l-19 7-16 3h-16l-12-2-12-5-8-6-8-9-5-10-3-14v-103h-32v-38l1-1 19-1h12z" fill="#fff"/>
<path transform="translate(1536,340)" d="m0 0h8l13 3 9 6 8 9 4 10 3 16v21l-3 17-6 12-8 8-8 4-9 2h-13l-9-2-10-6-7-8-4-7-3-13-1-6v-24l3-14 7-14 7-7 10-5z" fill="#0A0909"/>
<path transform="translate(803,340)" d="m0 0h12l10 3 10 6 7 8 5 12 2 11v26l-3 15-4 10-7 9-10 6-11 3h-10l-10-3-9-6-6-9-3-10-1-4v-46l5-16 9-10 10-4z" fill="#0A0909"/>
<path transform="translate(258,367)" d="m0 0 3 1 11 26 2 3 29 6 1 2-5 5-14 13-4 4 6 28v2l-7-2-21-12-4 1-25 13-1-3 5-25-1-5-21-21 6-2 16-3 11-1 2-6 9-20z" fill="#0A0909"/>
<path transform="translate(479,367)" d="m0 0h2l8 18 6 12 30 6-1 4-8 7-7 7-6 5 1 9 3 17v5l-5-2-21-12-5 1-23 12h-2l1-7 4-23-5-5-12-11-4-3v-2h-2l1-3 21-4 9-1 8-16z" fill="#0A0909"/>
<path transform="translate(989,338)" d="m0 0h15l10 3 6 4 7 8 5 12v10l-1 1h-70l-1-1 1-9 4-10 4-6 9-8z" fill="#0A0909"/>
<path transform="translate(366,380)" d="m0 0 8 1 5 3 4 5 2 9-2 7-4 5-6 3-5 1-9-3-6-7-1-3v-8l3-6 6-5z" fill="#fff"/>
</svg>
