<?xml version="1.0" encoding="UTF-8"?>
<svg version="1.1" viewBox="0 0 2048 1042" width="597" height="304" xmlns="http://www.w3.org/2000/svg">
<path transform="translate(0)" d="m0 0h2048v1042h-2048z" fill="#0A0909"/>
<path transform="translate(91,336)" d="m0 0h69l1 1 1 135 6-8 11-9 10-6 9-4 11-3 19-2 16 1 12 2 18 6 13 7 11 8 14 14 7 10 9 16 8 20 4 17 3 19v46l-4 25-7 23-8 16-9 14-11 12-7 7-16 11-17 8-15 4-12 1h-11l-14-1-13-4-16-8-13-10-7-8-4-6-2 31-1 2h-66v-386z" fill="#FEFEFE"/>
<path transform="translate(1282,440)" d="m0 0h23l22 3 16 5 12 5 14 8 12 9 13 13 11 15 8 14 6 14 5 16 3 15 1 11v33l-2 17-5 20-8 20-8 14-9 12-16 16-15 10-16 8-16 5-14 3-10 1h-28l-16-2-22-6-16-8-10-7-10-8-8-8-10-13-9-15-7-16-6-21-3-23v-28l3-26 4-16 6-16 8-16 10-14 11-12 12-10 16-9 14-6 19-5z" fill="#FEFEFE"/>
<path transform="translate(746,341)" d="m0 0h32l21 2 21 5 20 7 18 8 3 2v72h-3l-23-10-30-10-23-5-12-1h-26l-10 2-12 5-9 7-5 7-3 10v17l4 10 9 10 10 7 16 7 24 7 32 8 12 4 16 7 14 8 14 11 8 9 9 13 8 17 4 16 2 18v11l-2 18-4 15-6 14-8 12-11 12-11 9-13 8-17 8-16 5-15 3-10 1h-46l-16-2-16-4-20-6-21-9-15-8-2-2v-9l8-58 1-5 4 1 16 9 17 8 22 8 15 4 18 3h27l19-4 10-4 8-6 7-8 4-10 1-12-2-11-4-8-7-8-10-7-12-6-27-8-28-7-20-7-16-8-11-7-13-10-7-7-10-14-8-16-5-17-2-17 1-21 2-13 4-13 8-16 8-11 14-14 16-10 15-7 17-5 9-2z" fill="#FEFEFE"/>
<path transform="translate(475,440)" d="m0 0h25l21 3 16 5 16 8 12 9 10 9 11 13 9 15 7 15 5 16 3 15 2 18v36l-1 1h-176l2 15 5 16 5 9 9 10 14 8 14 3h26l21-5 17-7 14-9 8-7 5 5 10 13 9 12 9 11-1 4-7 9-13 11-13 8-16 8-11 4-20 5-11 1h-33l-15-2-20-6-19-9-11-8-10-9-7-7-8-11-8-14-7-16-6-21-3-18v-40l4-25 4-15 8-19 6-11 10-14 11-12 12-10 11-7 16-7 16-4z" fill="#FEFEFE"/>
<path transform="translate(1459,446)" d="m0 0h70l1 1 1 172 4 20 5 10 8 8 14 7 10 1h9l11-2 12-6 6-5 7-10 5-14 2-13 1-169h70l1 1v275l-1 1h-65l-3-31h-2l-6 8-10 9-11 7-17 7-13 3-11 1h-15l-16-2-16-5-15-8-11-9-9-11-9-17-4-13-3-19-1-192z" fill="#FEFEFE"/>
<path transform="translate(1025,440)" d="m0 0h25l20 3 16 5 17 8 14 10 12 12 10 15 7 16 3 8v5l-3 2-17 5-27 9-10 3h-6l-5-11-6-9-9-8-10-5-14-3h-12l-13 3-11 6-7 6-7 10-6 13-4 19v43l5 20 8 16 9 10 10 7 7 3 9 2 12 1 15-3 12-5 10-8 8-11 5-10 17 4 30 9 14 5 1 2-3 10-6 15-7 11-9 11-9 8-14 9-17 8-17 5-8 2-11 1h-30l-14-2-12-3-13-5-17-9-13-10-14-14-12-17-8-14-6-15-5-17-3-17v-36l4-23 5-16 6-15 9-16 12-16 8-9 11-9 10-7 15-8 19-6z" fill="#FEFEFE"/>
<path transform="translate(1774,375)" d="m0 0h70l1 1v70h69l1 1v57l-1 3h-69l1 138 3 10 5 5 10 3h13l16-3 13-5h4l3 18 8 33v5l-10 5-16 6-18 4-8 1h-26l-13-2-12-4-12-6-13-11-9-12-5-11-4-16-1-6-1-20v-74l1-58h-48v-57l1-1 39-2 7-1v-54z" fill="#FEFEFE"/>
<path transform="translate(1289,504)" d="m0 0h13l14 3 14 7 8 7 7 10 6 13 4 19v41l-4 21-4 10-6 9-10 10-12 6-17 4h-13l-14-3-9-4-9-6-8-9-5-9-5-13-4-26v-18l2-18 4-15 8-16 4-6 10-8 12-6z" fill="#0A0909"/>
<path transform="translate(202,504)" d="m0 0h18l13 3 13 7 11 11 7 12 4 13 3 17v28l-4 26-6 16-8 11-9 8-13 6-14 3h-11l-16-4-10-6-9-9-6-12-4-18v-66l5-18 6-11 9-9 10-5z" fill="#0A0909"/>
<path transform="translate(483,500)" d="m0 0h12l14 3 14 7 5 4 7 10 5 12 2 7v13h-107v-7l5-16 5-10 7-9 13-9 12-4z" fill="#0A0909"/>
</svg>
