<svg xmlns="http://www.w3.org/2000/svg" viewBox="0 0 200 200" width="200" height="200">
  <defs>
    <radialGradient id="ballGrad" cx="40%" cy="35%" r="55%">
      <stop offset="0%" stop-color="#ffffff"/>
      <stop offset="70%" stop-color="#e8e8e8"/>
      <stop offset="100%" stop-color="#bdbdbd"/>
    </radialGradient>
    <filter id="ds" x="-10%" y="-10%" width="130%" height="130%">
      <feDropShadow dx="0" dy="3" stdDeviation="4" flood-color="#000" flood-opacity="0.2"/>
    </filter>
  </defs>
  <circle cx="100" cy="100" r="88" fill="url(#ballGrad)" stroke="#999" stroke-width="1.5" filter="url(#ds)"/>
  <polygon points="100,62 118,75 112,96 88,96 82,75" fill="#1a1a1a"/>
  <polygon points="100,16 115,30 108,48 92,48 85,30" fill="#1a1a1a"/>
  <polygon points="155,52 162,70 150,83 134,78 133,60" fill="#1a1a1a"/>
  <polygon points="152,128 145,146 128,152 118,138 126,120" fill="#1a1a1a"/>
  <polygon points="48,128 55,146 72,152 82,138 74,120" fill="#1a1a1a"/>
  <polygon points="45,52 38,70 50,83 66,78 67,60" fill="#1a1a1a"/>
  <polygon points="100,172 115,158 108,142 92,142 85,158" fill="#1a1a1a"/>
  <g stroke="#aaa" stroke-width="1" fill="none" stroke-linecap="round">
    <line x1="100" y1="62" x2="100" y2="48"/>
    <line x1="82" y1="75" x2="67" y2="78"/>
    <line x1="118" y1="75" x2="133" y2="78"/>
    <line x1="112" y1="96" x2="126" y2="120"/>
    <line x1="88" y1="96" x2="74" y2="120"/>
    <line x1="85" y1="30" x2="67" y2="60"/>
    <line x1="115" y1="30" x2="133" y2="60"/>
    <line x1="162" y1="70" x2="172" y2="88"/>
    <line x1="150" y1="83" x2="148" y2="102"/>
    <line x1="38" y1="70" x2="28" y2="88"/>
    <line x1="50" y1="83" x2="52" y2="102"/>
    <line x1="145" y1="146" x2="115" y2="158"/>
    <line x1="55" y1="146" x2="85" y2="158"/>
    <line x1="128" y1="152" x2="142" y2="166"/>
    <line x1="72" y1="152" x2="58" y2="166"/>
    <line x1="148" y1="102" x2="126" y2="120"/>
    <line x1="52" y1="102" x2="74" y2="120"/>
  </g>
  <ellipse cx="72" cy="52" rx="26" ry="16" fill="white" opacity="0.22" transform="rotate(-25 72 52)"/>
</svg>